<?xml version="1.0" encoding="UTF-8" standalone="no"?>
<!-- Created with Inkscape (http://www.inkscape.org/) -->

<svg
   xmlns:dc="http://purl.org/dc/elements/1.1/"
   xmlns:cc="http://creativecommons.org/ns#"
   xmlns:rdf="http://www.w3.org/1999/02/22-rdf-syntax-ns#"
   xmlns:svg="http://www.w3.org/2000/svg"
   xmlns="http://www.w3.org/2000/svg"
   xmlns:sodipodi="http://sodipodi.sourceforge.net/DTD/sodipodi-0.dtd"
   xmlns:inkscape="http://www.inkscape.org/namespaces/inkscape"
   width="256"
   height="256"
   id="svg5257"
   version="1.1"
   inkscape:version="0.48.3.1 r9886"
   sodipodi:docname="leader.svg">
  <defs
     id="defs5259">
    <inkscape:perspective
       sodipodi:type="inkscape:persp3d"
       inkscape:vp_x="0 : 526.18109 : 1"
       inkscape:vp_y="0 : 1000 : 0"
       inkscape:vp_z="744.09448 : 526.18109 : 1"
       inkscape:persp3d-origin="372.04724 : 350.78739 : 1"
       id="perspective5265" />
    <inkscape:perspective
       id="perspective5250"
       inkscape:persp3d-origin="0.5 : 0.33333333 : 1"
       inkscape:vp_z="1 : 0.5 : 1"
       inkscape:vp_y="0 : 1000 : 0"
       inkscape:vp_x="0 : 0.5 : 1"
       sodipodi:type="inkscape:persp3d" />
    <inkscape:perspective
       id="perspective5288"
       inkscape:persp3d-origin="0.5 : 0.33333333 : 1"
       inkscape:vp_z="1 : 0.5 : 1"
       inkscape:vp_y="0 : 1000 : 0"
       inkscape:vp_x="0 : 0.5 : 1"
       sodipodi:type="inkscape:persp3d" />
    <inkscape:perspective
       id="perspective5316"
       inkscape:persp3d-origin="0.5 : 0.33333333 : 1"
       inkscape:vp_z="1 : 0.5 : 1"
       inkscape:vp_y="0 : 1000 : 0"
       inkscape:vp_x="0 : 0.5 : 1"
       sodipodi:type="inkscape:persp3d" />
    <inkscape:perspective
       sodipodi:type="inkscape:persp3d"
       inkscape:vp_x="0 : 0.5 : 1"
       inkscape:vp_y="0 : 1000 : 0"
       inkscape:vp_z="1 : 0.5 : 1"
       inkscape:persp3d-origin="0.5 : 0.33333333 : 1"
       id="perspective5344" />
    <inkscape:perspective
       sodipodi:type="inkscape:persp3d"
       inkscape:vp_x="0 : 0.5 : 1"
       inkscape:vp_y="0 : 1000 : 0"
       inkscape:vp_z="1 : 0.5 : 1"
       inkscape:persp3d-origin="0.5 : 0.33333333 : 1"
       id="perspective5316-1" />
    <inkscape:perspective
       sodipodi:type="inkscape:persp3d"
       inkscape:vp_x="0 : 0.5 : 1"
       inkscape:vp_y="0 : 1000 : 0"
       inkscape:vp_z="1 : 0.5 : 1"
       inkscape:persp3d-origin="0.5 : 0.33333333 : 1"
       id="perspective5288-9" />
    <inkscape:perspective
       sodipodi:type="inkscape:persp3d"
       inkscape:vp_x="0 : 0.5 : 1"
       inkscape:vp_y="0 : 1000 : 0"
       inkscape:vp_z="1 : 0.5 : 1"
       inkscape:persp3d-origin="0.5 : 0.33333333 : 1"
       id="perspective5250-0" />
    <inkscape:perspective
       id="perspective5265-4"
       inkscape:persp3d-origin="372.04724 : 350.78739 : 1"
       inkscape:vp_z="744.09448 : 526.18109 : 1"
       inkscape:vp_y="0 : 1000 : 0"
       inkscape:vp_x="0 : 526.18109 : 1"
       sodipodi:type="inkscape:persp3d" />
    <inkscape:perspective
       sodipodi:type="inkscape:persp3d"
       inkscape:vp_x="0 : 0.5 : 1"
       inkscape:vp_y="0 : 1000 : 0"
       inkscape:vp_z="1 : 0.5 : 1"
       inkscape:persp3d-origin="0.5 : 0.33333333 : 1"
       id="perspective5400" />
    <inkscape:perspective
       sodipodi:type="inkscape:persp3d"
       inkscape:vp_x="0 : 0.5 : 1"
       inkscape:vp_y="0 : 1000 : 0"
       inkscape:vp_z="1 : 0.5 : 1"
       inkscape:persp3d-origin="0.5 : 0.33333333 : 1"
       id="perspective5372" />
    <inkscape:perspective
       sodipodi:type="inkscape:persp3d"
       inkscape:vp_x="0 : 0.5 : 1"
       inkscape:vp_y="0 : 1000 : 0"
       inkscape:vp_z="1 : 0.5 : 1"
       inkscape:persp3d-origin="0.5 : 0.33333333 : 1"
       id="perspective5344-0" />
    <inkscape:perspective
       sodipodi:type="inkscape:persp3d"
       inkscape:vp_x="0 : 0.5 : 1"
       inkscape:vp_y="0 : 1000 : 0"
       inkscape:vp_z="1 : 0.5 : 1"
       inkscape:persp3d-origin="0.5 : 0.33333333 : 1"
       id="perspective5316-0" />
    <inkscape:perspective
       sodipodi:type="inkscape:persp3d"
       inkscape:vp_x="0 : 0.5 : 1"
       inkscape:vp_y="0 : 1000 : 0"
       inkscape:vp_z="1 : 0.5 : 1"
       inkscape:persp3d-origin="0.5 : 0.33333333 : 1"
       id="perspective5288-4" />
    <inkscape:perspective
       sodipodi:type="inkscape:persp3d"
       inkscape:vp_x="0 : 0.5 : 1"
       inkscape:vp_y="0 : 1000 : 0"
       inkscape:vp_z="1 : 0.5 : 1"
       inkscape:persp3d-origin="0.5 : 0.33333333 : 1"
       id="perspective5250-9" />
    <inkscape:perspective
       id="perspective5265-3"
       inkscape:persp3d-origin="372.04724 : 350.78739 : 1"
       inkscape:vp_z="744.09448 : 526.18109 : 1"
       inkscape:vp_y="0 : 1000 : 0"
       inkscape:vp_x="0 : 526.18109 : 1"
       sodipodi:type="inkscape:persp3d" />
    <inkscape:perspective
       sodipodi:type="inkscape:persp3d"
       inkscape:vp_x="0 : 0.5 : 1"
       inkscape:vp_y="0 : 1000 : 0"
       inkscape:vp_z="1 : 0.5 : 1"
       inkscape:persp3d-origin="0.5 : 0.33333333 : 1"
       id="perspective5250-3" />
    <inkscape:perspective
       id="perspective5265-2"
       inkscape:persp3d-origin="372.04724 : 350.78739 : 1"
       inkscape:vp_z="744.09448 : 526.18109 : 1"
       inkscape:vp_y="0 : 1000 : 0"
       inkscape:vp_x="0 : 526.18109 : 1"
       sodipodi:type="inkscape:persp3d" />
    <inkscape:perspective
       sodipodi:type="inkscape:persp3d"
       inkscape:vp_x="0 : 0.5 : 1"
       inkscape:vp_y="0 : 1000 : 0"
       inkscape:vp_z="1 : 0.5 : 1"
       inkscape:persp3d-origin="0.5 : 0.33333333 : 1"
       id="perspective5372-3" />
    <inkscape:perspective
       sodipodi:type="inkscape:persp3d"
       inkscape:vp_x="0 : 0.5 : 1"
       inkscape:vp_y="0 : 1000 : 0"
       inkscape:vp_z="1 : 0.5 : 1"
       inkscape:persp3d-origin="0.5 : 0.33333333 : 1"
       id="perspective5344-6" />
    <inkscape:perspective
       sodipodi:type="inkscape:persp3d"
       inkscape:vp_x="0 : 0.5 : 1"
       inkscape:vp_y="0 : 1000 : 0"
       inkscape:vp_z="1 : 0.5 : 1"
       inkscape:persp3d-origin="0.5 : 0.33333333 : 1"
       id="perspective5316-9" />
    <inkscape:perspective
       sodipodi:type="inkscape:persp3d"
       inkscape:vp_x="0 : 0.5 : 1"
       inkscape:vp_y="0 : 1000 : 0"
       inkscape:vp_z="1 : 0.5 : 1"
       inkscape:persp3d-origin="0.5 : 0.33333333 : 1"
       id="perspective5288-5" />
    <inkscape:perspective
       sodipodi:type="inkscape:persp3d"
       inkscape:vp_x="0 : 0.5 : 1"
       inkscape:vp_y="0 : 1000 : 0"
       inkscape:vp_z="1 : 0.5 : 1"
       inkscape:persp3d-origin="0.5 : 0.33333333 : 1"
       id="perspective5250-30" />
    <inkscape:perspective
       id="perspective5265-5"
       inkscape:persp3d-origin="372.04724 : 350.78739 : 1"
       inkscape:vp_z="744.09448 : 526.18109 : 1"
       inkscape:vp_y="0 : 1000 : 0"
       inkscape:vp_x="0 : 526.18109 : 1"
       sodipodi:type="inkscape:persp3d" />
  </defs>
  <sodipodi:namedview
     id="base"
     pagecolor="#ffffff"
     bordercolor="#666666"
     borderopacity="1.0"
     inkscape:pageopacity="0.0"
     inkscape:pageshadow="2"
     inkscape:zoom="1.99"
     inkscape:cx="64.769472"
     inkscape:cy="104.05065"
     inkscape:document-units="px"
     inkscape:current-layer="layer1"
     showgrid="false"
     inkscape:window-width="1440"
     inkscape:window-height="876"
     inkscape:window-x="0"
     inkscape:window-y="24"
     inkscape:window-maximized="1" />
  <metadata
     id="metadata5262">
    <rdf:RDF>
      <cc:Work
         rdf:about="">
        <dc:format>image/svg+xml</dc:format>
        <dc:type
           rdf:resource="http://purl.org/dc/dcmitype/StillImage" />
        <dc:title></dc:title>
      </cc:Work>
    </rdf:RDF>
  </metadata>
  <g
     inkscape:label="Calque 1"
     inkscape:groupmode="layer"
     id="layer1"
     transform="translate(-202.45465,-133.19325)">
    <path
       style="fill:#070000;fill-opacity:1;fill-rule:nonzero;stroke:none"
       d="m 331.83545,140.86084 c -64.85327,0 -117.4247,54.25947 -117.4247,121.19677 0,66.93728 52.57143,121.19675 117.4247,121.19675 64.85404,0 117.45685,-54.25947 117.45685,-121.19675 0,-66.9373 -52.60281,-121.19677 -117.45685,-121.19677 z m 5.15112,12.07703 c 53.08585,2.61326 95.92151,45.57633 100.34999,99.83224 l -38.50593,0 c -4.1774,-32.40699 -29.91615,-57.74524 -61.84406,-60.22095 l 0,-39.61129 z m -13.35432,0.19674 0,35.87008 c -1.49811,-0.655 -3.09803,-1.09935 -4.80129,-1.27996 -0.8436,-0.12009 -1.69254,-0.16514 -2.54379,-0.16435 -8.37775,-0.29234 -15.63096,6.17749 -18.34622,14.17735 0,0.008 0,0.0237 0,0.0316 -17.65191,10.59874 -30.22236,29.19111 -33.03713,50.99911 l -38.53733,0 c 4.34428,-53.19196 45.62289,-95.53298 97.26576,-99.63535 z m 13.35432,51.09755 c 25.689,2.38975 46.39682,22.57686 50.42953,48.53779 l -32.14607,0 c 0,-4.2061 -0.0766,-8.39871 -0.16077,-12.60213 -1.09238,-6.34119 -7.89088,-8.71759 -13.2594,-7.38398 l -4.86482,0 0,-28.55168 z m -39.33193,11.71603 c 1.82116,6.3393 11.23388,9.24586 9.88811,16.44179 -6.43105,1.19574 -13.29156,-0.20937 -19.87266,0.49223 -2.36925,-0.11539 -4.25241,0.80488 -5.69156,2.26443 3.81989,-7.5216 9.18918,-14.0736 15.67611,-19.19853 z m -18.98311,27.10769 c -0.11483,1.32224 -0.0766,2.64408 0.13013,3.87253 l 0,5.84154 -2.5124,0 c 0.52054,-3.34616 1.33504,-6.58606 2.38456,-9.71407 z m 48.74463,4.95545 c 2.12812,0 4.00208,1.14493 5.21466,2.92085 1.23706,-1.61182 3.04902,-2.62543 5.05543,-2.62543 3.73109,0 6.77247,3.51279 6.77247,7.84349 0,3.0803 -1.55781,5.74066 -3.78392,7.02307 l -8.45735,8.9264 -8.23536,-10.10793 c -1.90459,-1.32555 -3.17994,-3.70478 -3.17994,-6.43229 0,-4.16724 2.95487,-7.54816 6.61401,-7.54816 z m -101.33596,19.10008 38.37886,0 c 0.99823,14.33316 6.20982,27.46395 14.34031,38.10165 l 0,9.0578 c 4.92606,-1.63076 6.26876,1.68482 5.53233,6.03852 l 0,39.41432 c -33.2308,-17.26721 -56.45868,-52.06346 -58.2515,-92.61229 z m 49.72985,0 2.98932,0 0,14.30867 c -1.55093,-4.53329 -2.57365,-9.3383 -2.98932,-14.30867 z m 79.49136,0 32.5916,0 c -1.96966,23.58605 -17.55774,43.14826 -38.63301,50.21154 l 0,-3.05209 c 8.97101,2.90576 5.37081,-8.07097 6.01003,-13.5538 -0.0766,-11.20135 0,-22.40043 0,-33.60565 z m 43.94259,0 38.37886,0 c -2.295,51.94818 -39.74223,94.45235 -88.36286,102.75309 l 0,-40.39895 c 27.3624,-7.50747 47.89339,-32.2966 49.984,-62.35414 z m -89.25238,47.15945 13.64063,0 0,5.25086 c -4.76454,-0.72057 -9.34306,-2.06603 -13.64063,-3.93817 l 0,-1.31269 z m 0,13.81636 c 4.36263,1.54086 8.92738,2.62433 13.64063,3.2162 l 0,39.70973 c -4.639,-0.36897 -9.18843,-1.06846 -13.64063,-2.03475 l 0,-40.89118 z"
       id="path10607-8-3-6"
       inkscape:connector-curvature="0" />
  </g>
</svg>
