<?xml version="1.0" encoding="UTF-8" standalone="no"?>
<!-- Created with Inkscape (http://www.inkscape.org/) -->

<svg
   xmlns:dc="http://purl.org/dc/elements/1.1/"
   xmlns:cc="http://creativecommons.org/ns#"
   xmlns:rdf="http://www.w3.org/1999/02/22-rdf-syntax-ns#"
   xmlns:svg="http://www.w3.org/2000/svg"
   xmlns="http://www.w3.org/2000/svg"
   version="1.1"
   width="256"
   height="256"
   id="svg5257">
  <defs
     id="defs5259" />
  <metadata
     id="metadata5262">
    <rdf:RDF>
      <cc:Work
         rdf:about="">
        <dc:format>image/svg+xml</dc:format>
        <dc:type
           rdf:resource="http://purl.org/dc/dcmitype/StillImage" />
        <dc:title></dc:title>
      </cc:Work>
    </rdf:RDF>
  </metadata>
  <g
     transform="translate(-202.45465,-133.19325)"
     id="layer1">
    <path
       d="m 348.3018,138.06129 c -3.93021,0.46879 -8.47518,-0.61024 -11.9036,1.52184 -0.89133,1.57349 1.76433,2.38608 3.14909,2.15606 11.41111,0.44258 23.04913,0.66766 33.90062,4.03051 8.15903,2.18565 15.25855,6.52259 22.43896,10.25692 0.74431,0.64931 3.85854,1.90553 2.28997,2.93238 -6.10991,0.73626 -10.61442,-3.91206 -16.32453,-4.91835 -7.44134,-2.63276 -14.69252,-6.87572 -23.0951,-6.38515 -5.30951,-0.14617 -10.82575,-0.98684 -15.95602,0.55148 -1.15234,1.58013 1.30393,2.58426 2.80726,2.56953 7.64997,1.02877 15.651,0.95522 22.89113,3.46546 8.17925,1.99552 15.43771,6.24312 21.53474,11.2126 1.29936,2.77195 -2.16129,5.01752 -4.49717,6.34096 -2.3313,1.14872 -3.49556,-2.00559 -5.6789,-2.16142 -6.75129,-2.82833 -12.91167,-7.46884 -20.78767,-7.4576 -8.22705,-1.16556 -16.57171,-1.07757 -24.85761,-1.58526 -1.26348,-0.85837 -0.6616,-2.75814 -0.23863,-3.81563 2.1466,0.32146 4.40711,1.13744 6.69432,1.24616 4.89872,0.47286 9.96563,0.70994 14.81285,0.27603 0.78112,1.89483 4.93735,0.78494 3.59573,-1.18 -0.64321,-1.14739 -2.16587,-0.78972 -3.25296,-0.73864 -3.10594,-2.30556 -7.49007,-0.0292 -10.90839,-1.66579 -3.7538,-0.93955 -7.82921,-1.50245 -10.96731,-3.66066 -0.23863,-3.40293 -0.65243,-7.0591 1.26997,-10.14558 -1.42709,-2.91823 -5.78824,-1.99319 -8.67638,-2.33944 -11.72261,-0.23236 -23.49025,0.63416 -35.06213,2.15199 -3.22722,0.87467 -6.85416,0.59987 -9.84618,2.10627 -3.90628,0.0716 -7.65914,1.50303 -10.22657,4.06929 -3.34301,2.08794 -7.17858,3.42278 -10.77249,5.10592 -3.10959,0.2673 -6.10249,0.83474 -9.08346,1.57693 -5.53922,1.71524 -9.44733,5.85761 -12.56432,9.93611 -3.31822,3.21354 -8.35937,5.39494 -9.65414,9.8809 -1.78637,5.48979 -1.51984,11.58844 0.57903,16.98291 1.71377,1.99563 3.92468,3.95015 3.7602,6.64983 -0.0917,4.64854 -3.29158,8.77135 -3.26401,13.46492 -0.2757,5.03371 0,10.353 -2.7191,14.93167 -2.14013,6.0463 -7.31542,10.90821 -9.31406,17.04971 -2.82108,6.68362 -6.18068,13.17423 -9.98315,19.43045 -1.71101,3.20603 -2.99748,7.60708 0.30334,10.41025 2.72732,2.91188 7.23736,3.49592 11.29348,3.01059 2.82472,-0.0175 5.78271,0.11006 8.28307,1.35651 0.50554,4.1567 -0.0917,8.72327 2.90931,12.29605 1.38847,2.58047 1.60167,5.88917 -0.63404,8.12746 -3.01313,6.27602 1.49504,13.35923 -1.66416,19.62961 -1.61091,3.04128 -5.16154,5.28575 -5.41243,8.85528 -0.88217,3.8901 -1.32234,8.83204 2.414,11.72262 3.92192,1.26286 5.3453,5.03294 7.1914,7.94244 1.27913,3.66055 3.75562,7.04396 7.48184,9.18378 2.77053,1.75286 6.15858,3.11862 9.60358,3.14297 4.45302,-1.8939 9.83331,-1.76154 14.04743,0.54157 3.50198,1.60104 7.12985,3.07332 10.95349,3.86955 5.10641,2.81418 4.93364,10.55968 -0.79945,12.71516 -2.03356,1.7574 -3.6316,4.98434 -1.80478,7.31143 7.7345,3.6595 17.06515,2.64023 25.46219,1.63539 6.301,-1.39651 12.50002,-3.23904 19.04915,-3.50459 3.73263,-0.0798 7.33477,-0.88825 10.89464,-1.67261 16.44303,-1.52399 32.99912,-0.34591 49.49,-0.69718 7.59025,0.0582 15.48005,0.69479 22.81664,-1.1422 2.13649,-1.57018 0.41323,-4.23282 -1.44273,-5.34038 -3.08477,-2.71215 -7.14083,-6.30007 -5.8369,-10.46254 1.54195,-2.55485 5.61823,-1.42202 8.28306,-1.55491 5.48133,-0.13336 9.5632,-3.64407 13.41529,-6.60569 2.03167,-1.62496 5.11833,-1.18577 7.35499,-2.58047 5.3701,-2.66422 9.43816,-7.17505 11.58564,-12.14168 0.91896,-2.19479 0.30332,-4.53552 -0.85461,-6.51745 -0.1011,-2.82285 4.15259,-3.83823 4.70028,-6.50646 3.05262,-6.27602 -0.98321,-13.46941 -6.78344,-17.39086 -2.95246,-2.02689 -0.67078,-5.41357 0.49612,-7.70846 1.15504,-1.69432 1.89572,-3.83287 0.49614,-5.59113 -0.94648,-1.56545 -2.88263,-4.0612 -0.25749,-5.28237 3.21529,-2.35173 4.80408,-6.35068 3.1381,-9.82575 -0.34918,-1.33229 -1.76338,-3.00314 -1.27084,-4.22367 6.04641,-0.78174 13.22405,-0.2411 18.03918,-4.12444 3.51485,-3.3752 2.4976,-8.50081 0,-12.08799 -5.45557,-10.50434 -12.06901,-20.49584 -18.48582,-30.55784 -2.53986,-3.78977 -4.48706,-7.99341 -3.95684,-12.46009 0,-5.22671 -1.13764,-10.43616 -3.55158,-15.20759 -0.75354,-1.90042 0.30334,-3.72553 1.91775,-4.98457 5.27918,-5.81159 8.64882,-14.05192 4.90425,-21.18451 -1.99681,-3.55013 -3.65175,-7.4032 -7.34306,-9.91398 -7.91002,-6.45328 -18.09613,-10.15133 -27.36341,-14.90837 -9.72122,-4.6514 -19.99192,-8.6797 -31.12088,-9.82377 -5.98768,-0.60628 -11.98636,-1.56749 -18.01808,-1.59131 z m -11.78874,9.30746 c -2.07953,0.17121 -2.01798,3.17517 0.12874,3.18705 1.78274,0.64535 5.55669,0.18985 4.91619,-2.04018 -0.97034,-1.37747 -3.47258,-1.09876 -5.04393,-1.14687 z m 69.90916,14.99789 c 6.92682,0.2475 12.41455,4.75762 16.9972,8.88841 1.38111,1.52895 -0.70758,3.25308 0.0917,4.94054 0.74432,3.01642 2.323,7.18535 -1.15598,9.43977 -1.75786,1.47269 -4.44386,3.28925 -6.822,1.77551 -5.50802,0.57127 -10.5464,-1.69648 -14.77523,-4.5435 -3.16479,-2.12561 -6.45078,-4.64512 -8.06628,-7.8187 -1.00714,-6.75734 6.00515,-12.91561 13.73231,-12.68203 z m -66.34012,3.26426 c 3.76573,-0.15955 7.45058,1.28331 11.12901,1.14692 3.88242,-0.4286 7.85118,0.55032 11.64907,1.21303 8.21511,1.95463 15.09777,6.77096 22.61266,9.80374 -0.52376,0.6581 -2.15395,-0.0407 -2.9718,0.0582 -2.63086,-0.59824 -5.40684,0.20673 -6.94974,2.15041 -1.43073,1.45173 -3.64164,3.64692 -5.97017,2.17249 -6.07862,-3.03878 -12.82532,-5.80904 -20.04705,-5.15991 -4.82613,0.0407 -10.28635,0.8412 -14.57126,-1.43471 -3.37882,-3.54274 -0.80862,-10.44437 5.11928,-9.94711 z m 42.43093,14.98677 c 2.89273,0.29932 5.2332,2.37753 8.25826,2.26076 5.78918,1.21803 10.82392,7.11186 7.90174,12.20783 -2.08776,3.92953 -7.70053,4.36833 -11.94222,3.23112 -1.71378,-0.095 -4.30878,-2.14429 -5.45006,-0.17644 -0.56081,2.71331 1.67792,5.62718 -0.30332,8.18266 -1.05399,1.81598 -3.40551,2.63499 -5.60172,2.32688 -2.68688,0.66608 -2.37356,3.65244 -1.66417,5.43669 0.81786,3.44647 -4.20954,5.23328 -7.48265,4.65378 -8.06169,-1.11501 -13.64319,-8.02124 -13.55495,-14.90965 -0.91891,-2.31976 -5.36276,-1.39541 -5.2847,0.97048 -0.39503,4.10073 -4.67453,6.48927 -6.52979,10.04634 -1.92604,2.82605 -3.78224,5.80735 -6.73288,7.94006 -0.74433,-7.71243 -0.94283,-15.62792 0.13815,-23.30185 2.07583,-2.21839 5.81764,-0.64455 8.60009,-1.20202 3.39081,-0.42453 5.8673,1.75273 8.60014,3.0216 4.1691,1.34434 9.54386,-1.73434 8.85468,-5.76757 0.53318,-2.39728 4.57712,-3.62707 3.90081,-6.30794 -0.98967,-1.99913 -3.7602,-0.53692 -4.828,0.59591 -2.00235,1.5276 -2.72274,3.69554 -4.09097,5.59112 -0.90974,1.03309 -2.29551,-0.80281 -3.59485,-0.81615 -5.25343,-1.54466 -11.56913,0.43851 -16.24824,-2.50325 -2.95704,-2.8278 -1.28283,-7.0096 -1.48587,-10.43238 8.57164,1.00477 17.86919,-0.5573 25.81413,2.86722 2.66948,0.69241 6.49216,1.17628 6.94886,4.16853 0.88217,1.7218 2.3313,3.16265 3.41744,4.80811 1.22581,1.71599 4.87391,2.78686 5.90679,0.38609 0.98598,-2.52428 -2.25869,-4.99323 -0.76271,-7.55409 1.04387,-2.82785 3.66833,-5.49551 7.21532,-5.72344 z m 33.22055,15.0641 c 3.71795,0.63579 4.28214,4.54396 5.12022,7.19011 1.6761,3.52516 1.50333,7.37072 0.82702,11.08298 -0.95752,6.74807 4.61569,12.21009 8.15999,17.71678 4.40341,7.96866 9.62191,15.7087 14.09704,23.63758 1.33063,2.63644 3.07473,5.27405 3.77308,8.0283 -0.88217,3.80909 -6.18891,4.81835 -9.99778,4.10243 -6.59598,-0.76183 -13.7139,0.29524 -19.74197,-2.53646 -1.79742,0.31446 -3.96607,-0.9038 -3.27689,-2.69078 0.75355,-3.19536 5.42895,-3.5722 8.43473,-2.81207 1.8682,0.36513 3.89441,1.48148 5.7552,0.48509 1.74775,1.63528 4.51739,1.64891 6.822,2.20551 2.69611,0.24167 3.07655,-3.38317 0.20222,-3.1429 -1.15692,0.22828 -2.15758,0.0856 -2.90925,-0.71716 -1.80384,-0.69554 -4.07541,0.29991 -5.4878,-1.32332 -5.45652,-2.56311 -13.60267,-1.91334 -16.74354,3.19806 -2.15947,3.13917 -1.31863,7.08391 0.63404,10.13462 -0.2939,2.71582 -4.12865,3.46931 -6.0088,5.23824 -5.18634,3.13276 -8.92632,7.70235 -11.34491,12.72611 -1.4877,2.15187 -4.64966,3.07569 -6.17415,5.06178 0.25749,-2.3387 -4.15258,-2.35588 -4.6874,-0.28652 -0.93359,1.80509 1.67246,3.61425 3.45512,2.37095 0.71675,-0.15257 0.95753,-1.58531 1.32139,-0.49616 0.93731,1.425 3.47717,0.0984 4.35751,1.30131 -0.38622,3.5022 -3.22263,7.07366 -7.05084,8.33705 -1.78731,0.52352 -3.37059,-0.39484 -4.63685,-1.29025 -2.48384,-0.83752 -3.89617,-3.01583 -5.41149,-4.6097 -2.34417,-0.66206 -2.86699,2.13074 -4.52292,2.76805 -3.4597,0.21955 -7.22079,-1.27597 -9.29849,-3.69438 -1.57869,-2.84893 -0.2757,-6.1121 0.2939,-8.99865 0.34918,-1.14739 1.87455,-0.95667 2.2614,0.0879 1.0614,1.61378 2.7081,3.48024 5.0568,3.30834 0.67084,1.11391 2.65843,2.76025 3.64533,0.99249 0.90057,-1.5972 2.42594,0.61583 3.63342,0.74982 1.66139,0.85354 5.23966,0.91324 5.0816,-1.41154 -1.02278,-2.20312 -4.02667,-4.15263 -6.85969,-3.66125 -1.49509,0.23469 -2.03726,-1.40006 -3.59572,-1.20201 -1.47394,-0.14034 -0.98234,-1.98439 -2.48937,-2.2277 -2.9534,-0.41695 -5.3269,-2.36063 -6.12365,-4.89633 -1.03465,-4.14261 -5.20928,-6.72705 -7.90174,-10.01326 -1.3462,-1.84731 2.22284,-2.698 2.26146,-4.49941 2.20538,-4.83811 2.5886,-10.39552 0.69841,-15.31765 1.10819,-3.82123 5.64392,-5.53622 8.32075,-8.46943 2.65748,-1.83507 5.18541,-4.39143 4.48066,-7.58698 -0.0917,-3.10121 0.75348,-6.627 4.22147,-8.13871 6.46089,-3.92359 9.54473,-10.56218 13.54295,-16.16676 1.72207,-0.49791 4.08363,-0.1287 5.98305,-0.7387 6.25138,-1.31895 11.73824,-5.61973 12.85653,-11.24842 1.15234,-2.25961 4.71591,-0.006 6.4278,-1.72035 0.71675,-0.4816 1.63477,-0.77615 2.5408,-0.82704 z m -166.5092,0.35231 c 3.32556,1.5364 3.75656,5.3805 6.58041,7.39971 2.54997,2.60628 6.44431,3.62776 10.18888,4.02515 5.61001,2.1269 6.8836,8.4912 12.71687,10.37717 3.24655,1.44101 6.52979,3.00513 10.27718,3.0658 3.9081,1.9632 3.42937,6.55631 6.25045,9.31848 1.4436,2.14215 3.95866,3.37228 5.98304,4.92941 0.78105,2.53983 3.22997,4.66661 6.19989,5.19415 2.32301,1.59538 4.77469,3.31382 5.91968,5.74556 -4.73148,3.69742 -9.90226,8.44356 -9.29943,14.43541 0.0917,3.16473 1.95913,6.07429 2.5408,9.08692 -1.38295,2.80294 -2.78428,5.66638 -3.72158,8.59073 -1.82776,1.06475 -4.40072,0.86483 -5.93344,2.39302 -2.71726,1.19648 -4.669,3.24481 -6.17326,5.45882 -1.57598,1.61553 -4.0754,1.86757 -6.2762,2.29379 -2.83672,1.03127 -4.62214,3.64005 -6.96173,5.0287 -2.40112,-1.93973 -6.81095,0.40415 -8.60009,-2.23869 -1.462,-3.86595 -2.34875,-8.09918 -4.90424,-11.63439 -1.96743,-3.43601 -5.90587,-5.57245 -8.16827,-8.8002 -1.28923,-2.23736 1.43626,-4.35347 0.73515,-6.68284 -0.90973,-6.93739 -9.51264,-11.90565 -17.25172,-10.91759 -3.0618,0.7578 -6.12918,1.68984 -9.10921,2.66877 -2.21913,0.76339 -4.23436,3.02112 -2.69334,5.05077 1.14499,2.02643 4.32535,2.24056 5.99685,0.60621 3.67473,-0.53226 5.86819,-4.75237 9.98491,-3.49574 3.8696,0.80725 6.84134,5.48869 4.01474,8.35906 -2.51687,1.04408 -5.72851,0.55032 -8.28307,-0.22012 -5.28192,-2.24581 -11.05088,0.72432 -16.51475,0.60068 -2.79075,0.0233 -6.16039,0.41871 -8.53766,-0.71075 0.24806,-3.50191 3.19513,-6.30717 4.49718,-9.56113 4.85463,-8.51088 8.02029,-17.66257 12.94754,-26.165 2.60233,-4.81668 4.41169,-9.95381 5.689,-15.12321 1.7193,-4.16357 -0.72597,-8.94827 1.75328,-12.94665 0,-2.53964 3.2272,-3.40745 5.52635,-4.00319 1.63201,-0.54448 3.01588,-1.66841 4.62397,-2.12835 z m 116.81157,5.31545 c -2.26604,0.0991 -2.98002,3.85965 -0.33095,3.80461 0.76271,-0.18285 1.76985,-0.88294 1.24515,0.27604 -0.33976,2.06959 2.56102,1.89284 4.0138,2.53639 1.5493,1.49861 4.34462,-0.16539 3.76114,-1.9739 -0.19279,-1.27958 -1.9077,-1.46081 -2.92219,-1.62113 -0.79022,-1.15339 -2.85323,-1.71512 -3.9513,-0.58473 0.46849,-1.18746 -0.16517,-2.65525 -1.81671,-2.43716 z m -116.06172,7.63125 c -4.02391,0.24808 -7.75378,3.61716 -6.70809,7.24527 0.37681,3.8529 2.59782,7.29082 4.80226,10.53161 1.30212,6.1238 2.07676,12.44856 4.67547,18.24002 0,2.29687 -2.31937,5.18087 0,7.11297 2.03632,0.73544 3.12152,-1.55172 3.41743,-2.91131 0.37681,-1.97658 1.73676,-3.79921 4.0901,-4.27876 7.0104,-2.19398 14.46645,-3.32517 21.81227,-4.21267 2.59688,0.45365 5.24425,1.99529 7.99091,0.87119 2.16952,-0.37154 3.79971,-2.34609 2.79533,-4.1906 -3.74274,-8.1489 -11.62979,-14.14161 -19.46909,-19.364 -4.79674,-2.6797 -9.76347,-5.25448 -14.47562,-8.02917 -2.79263,-0.96406 -5.90404,-1.06743 -8.8933,-1.01455 z m 165.53057,1.79752 c -5.85531,0.30049 -9.78645,4.70073 -15.16667,6.23892 -9.40789,3.91165 -17.68636,9.62286 -25.63772,15.38672 -2.04091,1.63015 -0.50555,4.13475 1.41051,5.21616 1.47947,1.67598 4.17833,2.71843 6.49123,2.10627 0.89133,1.57967 3.23732,1.52406 4.58628,2.66882 5.52177,2.62602 12.79959,3.55264 16.03967,8.82634 1.51991,1.76578 1.80107,4.25343 3.34666,5.87374 1.72301,0.73946 3.34396,-0.90841 3.12435,-2.35994 0.62487,-3.4367 -1.92517,-6.38615 -2.84495,-9.51706 -0.14695,-4.89587 3.40821,-9.22617 3.18859,-14.15978 0.41387,-3.48468 -0.61545,-7.81323 2.62998,-10.44332 3.90169,-0.95714 7.92284,-4.14535 7.06278,-7.96208 -0.48734,-1.51683 -2.63363,-1.97181 -4.23071,-1.87479 z m -66.4789,4.5545 c 1.74322,0.41346 3.89441,1.52206 4.12871,3.07675 -2.39748,0.1095 -5.24061,0.79943 -7.39361,-0.3861 0.2939,-1.28773 1.56035,-2.88358 3.2649,-2.69082 z m -93.06857,3.05473 c 6.25322,0.0991 11.47994,3.65525 16.88321,5.95504 2.43146,1.4445 5.07701,3.77131 6.37819,5.8448 -2.12914,-0.26788 -3.26584,-2.31511 -5.12023,-3.13196 -5.69082,-3.90519 -12.79587,-5.76006 -19.424,-8.12752 -1.0246,-0.10422 -2.58766,0.54623 -3.17578,0.36396 1.19001,-1.02555 2.92953,-0.83164 4.45861,-0.90425 z m 86.32281,2.33793 c -0.38624,0.80288 -1.59245,2.21197 -2.50218,2.08421 0.51433,-0.86868 1.53642,-1.80451 2.50218,-2.08421 z m 12.37322,1.54385 c 5.90215,0.37503 8.16543,6.73427 6.74663,11.07203 -1.43989,5.33629 -8.85926,7.07452 -14.27992,5.67936 -2.01428,-0.29817 -4.33176,-0.52819 -5.42436,-2.32693 -2.24764,-3.28704 -2.55179,-8.34532 1.45742,-10.75733 2.67312,-2.55345 6.68968,-2.92895 10.36994,-3.44659 0.38622,-0.0407 0.74431,-0.20033 1.13029,-0.22013 z m -115.92206,1.56604 c -3.06087,1.50721 -3.14175,5.32587 -2.49025,7.96208 1.34714,1.43594 3.32556,-0.41696 3.56998,-1.70941 0.54196,-1.84772 2.25505,-4.49301 0.16516,-6.02113 -0.38622,-0.198 -0.80862,-0.27603 -1.24515,-0.23119 z m 163.34629,1.03657 c 3.73358,2.42534 3.18777,7.2996 1.34626,10.57569 -0.6341,1.98748 -1.08155,4.82797 -3.64628,5.58012 -3.28236,-0.4484 -6.08692,-2.22484 -9.23506,-3.02165 -1.37107,-0.7259 -4.25188,-2.1786 -2.73197,-3.85971 3.72347,-3.9109 8.35296,-8.14215 14.26705,-9.27445 z m -145.56064,0.0879 c 6.08867,2.64971 12.13427,6.21056 16.13336,11.08297 -0.31274,1.89069 -3.42572,1.31475 -4.91618,1.73141 -3.2971,0.0798 -6.20548,1.6192 -9.34999,1.99605 -3.68302,-3.75775 -3.35866,-9.16265 -2.83301,-13.79588 0.16517,-0.3133 0.34918,-1.47973 0.96582,-1.01455 z m 165.94952,0.66125 c -2.43417,1.51513 -0.38623,4.38823 0.24806,6.26158 1.86544,3.34322 2.54815,7.44676 5.71934,10.08168 1.60721,1.34918 2.91573,-1.00454 2.17229,-2.22763 -1.56211,-3.80852 -3.18954,-7.6493 -4.99243,-11.40279 -0.72598,-0.91847 -1.56769,-3.03925 -3.15096,-2.71284 z M 235.3644,234.3662 c -3.85578,4.43687 -5.28099,10.22739 -10.12456,14.00539 -1.72847,2.17989 -4.67547,4.1333 -4.35751,7.06883 1.56764,1.75315 3.90076,-0.40123 4.79579,-1.6496 4.37678,-5.06306 9.89397,-9.87024 11.16023,-16.35888 0.90973,-1.15792 1.01084,-3.39791 -1.14311,-3.45172 l -0.23927,0.28303 -0.0917,0.10311 z m 100.93269,7.26734 c 0.9768,1.06336 -1.52449,2.21355 -2.24858,1.92989 0.40443,-0.86094 1.18084,-1.68448 2.24858,-1.92989 z m 96.59999,3.88178 c -2.44428,1.19585 1.03194,4.67447 2.59135,2.55853 0.64326,-1.25198 -1.06593,-3.098 -2.59135,-2.55853 z m -91.59463,1.7645 c 5.43811,-0.0175 8.50543,5.29227 7.88886,9.49498 -0.47792,3.19438 -1.72483,6.7631 -4.7517,8.82221 -1.53366,1.08472 -3.08573,-0.74902 -4.72596,-0.0233 -1.74869,0.34883 -3.60766,2.21221 -5.43724,1.27918 -2.16588,-4.08543 0.53318,-8.58903 1.04205,-12.80327 0.22044,-2.72588 1.33885,-6.66969 5.24701,-6.73806 0.24807,-0.0175 0.48735,-0.0233 0.73509,-0.0292 z m 81.55828,26.9189 c 3.92098,-0.0465 7.63157,3.7472 6.19896,7.02474 -3.13534,2.62864 -7.94583,1.14099 -11.77958,2.28005 -4.00273,0.55439 -7.672,3.26356 -7.88515,6.91724 -2.11626,7.80835 -1.74868,16.00103 0.22985,23.78701 0.67078,3.36472 -0.78111,6.91322 -4.02673,8.91054 -3.60213,3.10634 -10.71082,3.37276 -13.3261,-0.87124 -1.92328,-2.99266 -2.49301,-7.92883 1.34626,-9.86989 2.43599,-0.48684 3.12428,2.22967 2.98556,3.77148 -0.43208,2.1662 3.53964,3.94554 4.81507,1.7755 1.30212,-4.95392 -1.84239,-9.77496 -2.97268,-14.51261 -1.95084,-7.60348 -0.48733,-16.41502 5.78,-22.29831 4.96485,-4.10925 11.73725,-6.77113 18.63649,-6.91451 z m -73.26322,0.98148 c 5.76343,-0.0466 9.66606,6.98014 5.88193,10.73014 -5.19094,2.72775 -13.0651,-1.1945 -13.31323,-6.40717 0.34918,-2.99918 4.47695,-4.26648 7.4313,-4.32297 z m -15.46078,9.46191 c 5.74874,0.93152 8.95485,6.91357 15.2448,6.57267 1.50057,-0.13802 3.65451,0.37561 3.09948,2.06219 0.22043,2.85674 3.90998,5.71481 1.47394,8.50249 -2.14013,1.7486 -5.27547,2.21722 -7.50754,3.89279 -3.65815,0.97548 -6.83029,-1.81709 -9.0329,-3.99213 -1.4188,-0.25274 -3.96971,-0.15899 -3.46799,-2.09527 -0.4685,-4.94951 -0.58783,-10.05718 0.0917,-14.93168 l 0.11053,-0.005 0,0 z m 85.23027,6.72699 c 3.73357,0.16597 7.36415,3.95078 5.86911,7.09096 -2.58677,1.4541 -6.49028,1.17312 -8.93091,-0.46356 -3.31734,-2.11745 -0.52377,-6.60067 3.0618,-6.62775 z m -177.21821,3.12089 c 2.73649,-0.0233 6.58216,2.4268 4.94193,5.02876 -3.08943,2.43291 -7.88434,2.25273 -11.75112,2.16137 0.16517,-3.27836 2.93318,-6.68238 6.80919,-7.19013 z m 120.86393,11.5351 c 1.93157,-0.14966 4.53573,1.66876 2.69334,3.35255 -2.73561,4.33059 -1.12106,10.06363 3.0618,13.1893 1.22399,1.27905 1.12112,3.46639 -1.05493,3.91486 -5.13208,1.74516 -11.4947,-1.17005 -13.40235,-5.52498 -0.74431,-2.92609 2.93224,-6.14243 0.5514,-8.78924 -2.35333,-0.89098 -3.60032,1.87759 -4.50999,3.22018 -1.82223,2.94753 -1.88013,6.46418 -0.60665,9.55013 -0.81779,3.19508 -5.81944,4.14919 -8.89229,2.86728 -6.46549,-2.59002 -8.06904,-11.63194 -1.81671,-15.14126 2.92395,-1.69211 6.46548,0.25274 9.64214,-0.6836 5.12386,-0.53985 8.12781,-5.12637 13.02101,-5.9109 0.44087,-0.0582 0.88217,-0.0175 1.32146,-0.0466 z m 54.42365,1.3013 c 3.43396,0.84312 7.47814,0.92738 9.81948,3.60616 3.32651,2.37118 6.1724,6.41706 3.9385,10.09043 -1.90488,3.70375 -8.23068,6.1235 -12.05615,3.1319 -2.41035,-2.3879 0.20223,-5.76234 -0.85459,-8.52452 0.0917,-2.77078 -1.85532,-5.56713 -0.85459,-8.30397 z m -40.51312,1.74243 c 3.95595,-0.18169 9.24059,2.49435 8.20682,6.45131 -0.32154,1.97327 -2.22196,4.5107 -4.85282,3.39651 -3.70593,-0.45772 -8.36577,-2.82087 -7.74919,-6.57261 0.44087,-1.76956 2.29915,-3.29553 4.39519,-3.27521 z m 2.24858,16.75126 c 3.82728,-0.23293 7.3072,4.29437 4.2564,6.82627 -2.84495,3.00705 -9.05219,4.98742 -12.64057,1.94084 -1.81118,-1.86839 1.00162,-4.07791 2.08318,-5.64622 1.07238,-2.13259 3.7207,-3.10808 6.30099,-3.12089 z m 33.27205,3.01065 c 3.88795,0.17063 7.07936,2.73166 11.02696,2.6577 1.48682,0.52353 2.29362,2.24691 1.09174,3.37456 -0.90974,1.75605 -1.42345,4.95877 -4.49717,4.44421 -2.67225,0.0407 -5.39869,2.38335 -8.00285,0.77212 -3.55071,-1.87759 -6.32676,-6.3533 -3.50662,-9.60522 0.97222,-0.99487 2.38367,-1.61826 3.88794,-1.64313 z m -58.99705,2.5364 c 5.19369,0.80252 10.34419,3.50739 12.69111,7.56504 -0.97498,2.22589 -3.7207,3.41089 -5.89486,4.63177 -2.95522,0.65171 -6.02896,-0.61664 -8.58721,-1.73136 -3.2502,-2.43705 -3.9569,-8.04873 0.0917,-10.20078 0.55139,-0.20208 1.14311,-0.39891 1.7404,-0.26496 z m -19.38639,0.37502 c 2.03726,1.26649 4.70579,1.93536 6.92405,2.47024 1.26625,3.28034 0.79946,7.23252 3.65822,9.99126 4.09097,5.1185 11.56817,7.6691 18.59879,7.11291 4.25916,2.59055 8.30611,6.8777 14.08788,6.21121 1.40323,0.10653 3.29523,-0.78972 4.43469,-0.0909 0.54197,1.97449 1.44913,3.74243 2.7834,5.40565 2.03814,3.23835 4.08093,6.4827 6.64282,9.41579 -8.16179,1.70563 -16.55331,-0.42977 -24.82079,-0.42278 -21.10287,-1.08077 -42.34541,-0.0827 -63.20202,2.62264 -5.63941,0.47868 -11.30819,1.21161 -16.88598,1.71482 -2.01246,-0.36455 -4.98601,0.15491 -6.17421,-1.52178 1.10084,-2.62916 4.9153,-2.87928 7.29251,-4.10231 1.33885,-1.49913 1.30946,-3.5361 2.48936,-5.02877 0.40445,-4.42551 5.29663,-6.98805 9.3628,-8.82225 3.45148,-0.7203 7.19328,-0.14617 10.45541,-1.58799 7.18222,-2.31667 13.02931,-7.81387 14.43159,-14.39132 1.40039,-2.84952 5.90215,-2.50868 7.52041,-5.23823 0.9005,-1.2108 1.57317,-2.58595 1.98206,-3.959 l 0.34917,0.18286 0.0917,0.0407 z m 65.1079,0.68362 c 2.28903,0.41288 1.63841,3.31638 -0.23864,3.91485 -2.59871,2.05317 -6.30654,3.65159 -9.80762,2.82314 -0.68918,-2.29752 0.79028,-4.55747 2.09603,-6.50646 2.64192,0.32379 5.35636,0.23119 7.95324,-0.23118 z m 3.46799,8.25983 c 2.90925,1.92307 4.04965,5.26128 3.69677,8.35912 -3.02506,1.82769 -7.4735,2.1415 -10.62082,0.59586 -1.31492,-1.02633 -3.5139,-2.33282 -3.04892,-4.01409 2.82013,-2.17226 6.4342,-4.00099 9.97297,-4.94048 z m -21.26646,1.13586 c 2.96904,0.23992 3.5029,3.85452 1.47393,5.3926 -3.72892,4.04438 -12.7141,3.73685 -14.96545,-1.40053 -1.00896,-2.26019 1.8314,-4.26117 4.3575,-3.57302 3.05175,0.0466 6.10067,-0.16247 9.13402,-0.4187 z"
       id="path10477-6-1-4"
       style="fill:#070000;fill-opacity:1" />
  </g>
</svg>
