<?xml version="1.0" encoding="UTF-8" standalone="no"?>
<!-- Created with Inkscape (http://www.inkscape.org/) -->

<svg
   xmlns:dc="http://purl.org/dc/elements/1.1/"
   xmlns:cc="http://creativecommons.org/ns#"
   xmlns:rdf="http://www.w3.org/1999/02/22-rdf-syntax-ns#"
   xmlns:svg="http://www.w3.org/2000/svg"
   xmlns="http://www.w3.org/2000/svg"
   xmlns:sodipodi="http://sodipodi.sourceforge.net/DTD/sodipodi-0.dtd"
   xmlns:inkscape="http://www.inkscape.org/namespaces/inkscape"
   width="256"
   height="256"
   id="svg5257"
   version="1.1"
   inkscape:version="0.48.3.1 r9886"
   sodipodi:docname="militant.svg">
  <defs
     id="defs5259">
    <inkscape:perspective
       sodipodi:type="inkscape:persp3d"
       inkscape:vp_x="0 : 526.18109 : 1"
       inkscape:vp_y="0 : 1000 : 0"
       inkscape:vp_z="744.09448 : 526.18109 : 1"
       inkscape:persp3d-origin="372.04724 : 350.78739 : 1"
       id="perspective5265" />
    <inkscape:perspective
       id="perspective5250"
       inkscape:persp3d-origin="0.5 : 0.33333333 : 1"
       inkscape:vp_z="1 : 0.5 : 1"
       inkscape:vp_y="0 : 1000 : 0"
       inkscape:vp_x="0 : 0.5 : 1"
       sodipodi:type="inkscape:persp3d" />
    <inkscape:perspective
       id="perspective5288"
       inkscape:persp3d-origin="0.5 : 0.33333333 : 1"
       inkscape:vp_z="1 : 0.5 : 1"
       inkscape:vp_y="0 : 1000 : 0"
       inkscape:vp_x="0 : 0.5 : 1"
       sodipodi:type="inkscape:persp3d" />
    <inkscape:perspective
       id="perspective5316"
       inkscape:persp3d-origin="0.5 : 0.33333333 : 1"
       inkscape:vp_z="1 : 0.5 : 1"
       inkscape:vp_y="0 : 1000 : 0"
       inkscape:vp_x="0 : 0.5 : 1"
       sodipodi:type="inkscape:persp3d" />
    <inkscape:perspective
       sodipodi:type="inkscape:persp3d"
       inkscape:vp_x="0 : 0.5 : 1"
       inkscape:vp_y="0 : 1000 : 0"
       inkscape:vp_z="1 : 0.5 : 1"
       inkscape:persp3d-origin="0.5 : 0.33333333 : 1"
       id="perspective5344" />
    <inkscape:perspective
       sodipodi:type="inkscape:persp3d"
       inkscape:vp_x="0 : 0.5 : 1"
       inkscape:vp_y="0 : 1000 : 0"
       inkscape:vp_z="1 : 0.5 : 1"
       inkscape:persp3d-origin="0.5 : 0.33333333 : 1"
       id="perspective5316-1" />
    <inkscape:perspective
       sodipodi:type="inkscape:persp3d"
       inkscape:vp_x="0 : 0.5 : 1"
       inkscape:vp_y="0 : 1000 : 0"
       inkscape:vp_z="1 : 0.5 : 1"
       inkscape:persp3d-origin="0.5 : 0.33333333 : 1"
       id="perspective5288-9" />
    <inkscape:perspective
       sodipodi:type="inkscape:persp3d"
       inkscape:vp_x="0 : 0.5 : 1"
       inkscape:vp_y="0 : 1000 : 0"
       inkscape:vp_z="1 : 0.5 : 1"
       inkscape:persp3d-origin="0.5 : 0.33333333 : 1"
       id="perspective5250-0" />
    <inkscape:perspective
       id="perspective5265-4"
       inkscape:persp3d-origin="372.04724 : 350.78739 : 1"
       inkscape:vp_z="744.09448 : 526.18109 : 1"
       inkscape:vp_y="0 : 1000 : 0"
       inkscape:vp_x="0 : 526.18109 : 1"
       sodipodi:type="inkscape:persp3d" />
    <inkscape:perspective
       sodipodi:type="inkscape:persp3d"
       inkscape:vp_x="0 : 0.5 : 1"
       inkscape:vp_y="0 : 1000 : 0"
       inkscape:vp_z="1 : 0.5 : 1"
       inkscape:persp3d-origin="0.5 : 0.33333333 : 1"
       id="perspective5400" />
    <inkscape:perspective
       sodipodi:type="inkscape:persp3d"
       inkscape:vp_x="0 : 0.5 : 1"
       inkscape:vp_y="0 : 1000 : 0"
       inkscape:vp_z="1 : 0.5 : 1"
       inkscape:persp3d-origin="0.5 : 0.33333333 : 1"
       id="perspective5372" />
    <inkscape:perspective
       sodipodi:type="inkscape:persp3d"
       inkscape:vp_x="0 : 0.5 : 1"
       inkscape:vp_y="0 : 1000 : 0"
       inkscape:vp_z="1 : 0.5 : 1"
       inkscape:persp3d-origin="0.5 : 0.33333333 : 1"
       id="perspective5344-0" />
    <inkscape:perspective
       sodipodi:type="inkscape:persp3d"
       inkscape:vp_x="0 : 0.5 : 1"
       inkscape:vp_y="0 : 1000 : 0"
       inkscape:vp_z="1 : 0.5 : 1"
       inkscape:persp3d-origin="0.5 : 0.33333333 : 1"
       id="perspective5316-0" />
    <inkscape:perspective
       sodipodi:type="inkscape:persp3d"
       inkscape:vp_x="0 : 0.5 : 1"
       inkscape:vp_y="0 : 1000 : 0"
       inkscape:vp_z="1 : 0.5 : 1"
       inkscape:persp3d-origin="0.5 : 0.33333333 : 1"
       id="perspective5288-4" />
    <inkscape:perspective
       sodipodi:type="inkscape:persp3d"
       inkscape:vp_x="0 : 0.5 : 1"
       inkscape:vp_y="0 : 1000 : 0"
       inkscape:vp_z="1 : 0.5 : 1"
       inkscape:persp3d-origin="0.5 : 0.33333333 : 1"
       id="perspective5250-9" />
    <inkscape:perspective
       id="perspective5265-3"
       inkscape:persp3d-origin="372.04724 : 350.78739 : 1"
       inkscape:vp_z="744.09448 : 526.18109 : 1"
       inkscape:vp_y="0 : 1000 : 0"
       inkscape:vp_x="0 : 526.18109 : 1"
       sodipodi:type="inkscape:persp3d" />
    <inkscape:perspective
       sodipodi:type="inkscape:persp3d"
       inkscape:vp_x="0 : 0.5 : 1"
       inkscape:vp_y="0 : 1000 : 0"
       inkscape:vp_z="1 : 0.5 : 1"
       inkscape:persp3d-origin="0.5 : 0.33333333 : 1"
       id="perspective5250-3" />
    <inkscape:perspective
       id="perspective5265-2"
       inkscape:persp3d-origin="372.04724 : 350.78739 : 1"
       inkscape:vp_z="744.09448 : 526.18109 : 1"
       inkscape:vp_y="0 : 1000 : 0"
       inkscape:vp_x="0 : 526.18109 : 1"
       sodipodi:type="inkscape:persp3d" />
  </defs>
  <sodipodi:namedview
     id="base"
     pagecolor="#ffffff"
     bordercolor="#666666"
     borderopacity="1.0"
     inkscape:pageopacity="0.0"
     inkscape:pageshadow="2"
     inkscape:zoom="1.99"
     inkscape:cx="64.769472"
     inkscape:cy="104.05065"
     inkscape:document-units="px"
     inkscape:current-layer="layer1"
     showgrid="false"
     inkscape:window-width="1440"
     inkscape:window-height="876"
     inkscape:window-x="0"
     inkscape:window-y="24"
     inkscape:window-maximized="1" />
  <metadata
     id="metadata5262">
    <rdf:RDF>
      <cc:Work
         rdf:about="">
        <dc:format>image/svg+xml</dc:format>
        <dc:type
           rdf:resource="http://purl.org/dc/dcmitype/StillImage" />
        <dc:title></dc:title>
      </cc:Work>
    </rdf:RDF>
  </metadata>
  <g
     inkscape:label="Calque 1"
     inkscape:groupmode="layer"
     id="layer1"
     transform="translate(-202.45465,-133.19325)">
    <path
       style="fill:#000000;fill-opacity:1;stroke:none"
       d="m 395.72449,155.17437 c -0.0839,-0.004 -0.15256,0.008 -0.19069,0.0392 -1.17929,0.81758 1.52406,13.15304 4.17631,19.06463 3.02144,6.7344 7.62644,10.81326 13.9546,12.35594 1.53246,0.37333 2.92686,0.69962 3.1023,0.72628 2.06948,0.3098 1.90013,-9.21011 -0.25172,-14.27361 -1.81012,-4.25588 -5.14506,-8.34414 -9.39156,-11.51201 -3.79338,-2.83045 -10.09257,-6.33856 -11.39466,-6.39833 z m -130.27276,0.006 c -1.30591,0.0549 -7.59364,3.54653 -11.40763,6.39212 -4.1992,3.13297 -7.55398,7.2214 -9.39766,11.4499 -1.61866,3.71313 -2.34484,11.97838 -1.18844,13.54129 0.73991,0.9975 2.72548,0.74432 6.94069,-0.88118 4.87275,-1.87908 8.44187,-5.5988 11.16582,-11.6361 2.30594,-5.11157 5.11609,-18.10572 4.07411,-18.82878 -0.0763,-0.0313 -0.0992,-0.0393 -0.18307,-0.0393 z m -32.21215,7.32923 c 0,3.2e-4 0,0.003 0,0.006 -0.92604,0.33098 -4.26023,7.9552 -5.66148,12.95171 -2.93144,10.44879 -1.71859,20.10417 3.25867,26.009 0.85737,1.01632 1.75138,1.84934 1.99242,1.84934 0.75517,0 4.48448,-5.1031 5.5707,-7.62084 2.36086,-5.47314 2.5447,-13.18034 0.4882,-20.26848 -1.6446,-5.66922 -4.81554,-12.9503 -5.61343,-12.92693 z m 194.67876,0 c -0.84518,0.0157 -4.59738,8.77937 -5.88498,13.79572 -2.53706,9.88635 -1.12055,18.25152 4.21293,24.88577 0.94282,1.17256 1.8925,2.13485 2.10608,2.13485 0.76891,0 4.18471,-4.74514 5.11227,-7.09959 2.25407,-5.7177 2.22508,-13.85102 -0.0763,-21.60904 -1.33794,-4.50639 -4.61187,-11.81061 -5.42577,-12.10151 0,-0.004 0,-0.006 -0.0763,-0.006 z m -167.33173,22.10544 c -0.82306,0.0157 -2.36239,0.56941 -5.13057,1.61977 -9.86068,3.74082 -16.65263,10.5102 -18.80066,18.75428 -0.91078,3.49649 -1.0519,7.49205 -0.29749,8.34077 0.50344,0.56549 5.23508,0.22274 8.35949,-0.60785 l 1.51492,-0.40314 -1.29142,1.04887 c -1.8742,1.51656 -5.28771,5.01761 -9.34274,9.58808 -3.94137,4.44145 -6.06957,8.68022 -6.91094,13.77721 -0.55684,3.37939 -0.22121,9.26635 0.63312,11.05272 0.58735,1.23907 0.22121,1.24683 3.65685,-0.0808 9.73787,-3.75987 14.06293,-12.67877 14.73343,-30.37185 0.21358,-5.6744 0.328,-6.24696 1.40583,-7.04987 2.34637,-1.75028 5.07642,-5.03768 6.76601,-8.14837 1.97488,-3.63548 5.02454,-12.27783 5.45018,-15.44037 0.1907,-1.42228 0.18307,-2.09523 -0.74754,-2.07899 z m 139.90003,0.006 c -0.86197,0.0157 -0.84442,0.67765 -0.64838,2.0728 0.47294,3.41477 3.10458,11.13374 5.02759,14.73283 1.9909,3.72559 4.7263,7.11551 7.07953,8.75654 1.22429,0.85326 1.52711,1.40347 1.34633,2.46379 -0.35089,2.07601 0.76279,14.3947 1.65374,18.2516 2.00006,8.65732 5.87201,13.6521 12.90424,16.65668 1.53247,0.65491 2.94516,1.20629 3.14425,1.2226 0.97028,0.0793 1.5973,-2.98529 1.624,-7.9312 0,-5.08507 -0.0763,-5.657 -1.84139,-9.81781 -1.38219,-3.26112 -2.77964,-5.42546 -5.3228,-8.24759 -4.19386,-4.65353 -7.50058,-8.01928 -9.22909,-9.40205 l -1.29141,-1.03632 1.76893,0.45962 c 0.97485,0.2549 3.25866,0.4698 5.06955,0.47137 l 3.28918,0 0.16019,-2.43892 c 0.20595,-3.18638 -1.1175,-8.24924 -3.04204,-11.64229 -3.02067,-5.3271 -9.87288,-10.67514 -16.86926,-13.16897 -2.61105,-0.93067 -4.05655,-1.41782 -4.8163,-1.40253 z m -181.64257,8.84964 c -0.18307,0.008 -0.34326,0.17804 -0.52633,0.45883 -0.35852,0.54745 -1.10911,3.20755 -1.67206,5.90805 -2.98558,14.32897 -1.3837,24.36616 4.91318,30.8248 1.49814,1.53632 3.02907,2.79265 3.40437,2.79265 0.37376,0 1.148,-0.65726 1.714,-1.46456 3.45776,-4.93353 4.34718,-15.0024 1.94361,-21.95657 -1.42796,-4.13047 -3.77127,-8.50463 -7.36404,-13.75235 -1.42414,-2.08104 -2.00159,-2.83414 -2.41426,-2.81124 z m 223.47512,0 c -0.41191,-0.0235 -0.98935,0.7302 -2.41425,2.81124 -9.21611,13.46372 -11.06437,23.07352 -6.45784,33.62372 1.06029,2.42912 1.84673,3.54976 2.48061,3.54976 0.51107,0 2.08549,-1.16652 3.50048,-2.59406 4.76824,-4.8111 7.06273,-12.51493 6.42809,-21.56559 -0.36614,-5.25346 -2.06489,-13.91188 -3.01229,-15.36585 -0.18307,-0.28157 -0.33563,-0.44863 -0.52633,-0.45882 z m 11.02089,33.51815 -0.45768,0.29805 c -0.77271,-0.0549 -2.31051,1.00487 -5.17863,3.10301 -5.97193,4.36897 -10.35039,9.40446 -12.39697,14.25494 -1.50806,3.57374 -1.63544,4.32733 -1.6301,9.56337 0,3.60089 0.24409,6.16656 0.66363,6.99402 0.78492,1.55813 1.3288,1.444 6.5181,-1.35908 4.22971,-2.28465 6.57683,-5.03298 8.85455,-10.38251 1.62171,-3.81023 3.1473,-11.24614 3.72397,-18.13364 0.17545,-2.07955 0.23647,-3.33406 -0.12967,-3.81666 l 0,-0.52157 z m -245.5108,0.0808 0,0.31058 c -0.25935,0.15765 -0.35852,0.5357 -0.35852,1.11703 0,2.98646 1.11979,11.22363 2.05269,15.09283 2.30669,9.57027 5.70038,14.11353 13.09112,17.52547 1.56221,0.72158 2.99932,1.31453 3.19841,1.3219 1.0191,0.0392 1.62247,-2.99022 1.64231,-8.22901 0,-5.25393 -0.0992,-5.97746 -1.6118,-9.56337 -2.04734,-4.85047 -6.42504,-9.88596 -12.39698,-14.25502 -2.86811,-2.09829 -4.44253,-3.06951 -5.24499,-3.09053 l -0.38903,-0.22981 z m 207.10016,12.64151 c -1.01529,0 -2.03362,8.19607 -2.00998,16.20366 0,6.24672 0.19833,7.87802 1.14115,10.54385 1.59959,4.52097 3.76212,7.54265 7.30302,10.19632 1.7018,1.27554 3.34715,2.23648 3.65151,2.13484 0.30512,-0.10197 1.11978,-1.45421 1.81621,-3.00372 1.12208,-2.49578 1.26778,-3.5263 1.26778,-9.06681 0,-6.02931 -0.0763,-6.41346 -1.85894,-10.62456 -2.69496,-6.33378 -9.63337,-16.38358 -11.31075,-16.38358 z m -168.76199,0.21098 c -1.69722,0.0706 -8.28779,9.31231 -10.99038,15.62029 -1.71247,3.99658 -2.06565,5.46616 -2.26398,9.30266 -0.25935,5.08098 0.42718,9.49341 1.92531,12.25673 0.54921,1.01067 1.18462,1.83695 1.41269,1.83695 0.22885,0 1.44627,-0.73098 2.70412,-1.62598 5.06116,-3.60237 7.99335,-8.48994 9.12001,-15.20451 0.92298,-5.50302 -0.17545,-20.33232 -1.6362,-22.07445 -0.0763,-0.08 -0.16019,-0.11686 -0.27461,-0.11138 z m 209.66545,19.13906 c -0.83984,0.0313 -2.31661,0.36313 -4.71942,0.87507 -12.96679,2.76049 -19.39869,7.69747 -22.2836,17.1097 -1.12664,3.67423 -1.24793,5.91479 -0.37376,6.89472 0.86653,0.97225 6.30223,0.85013 9.55479,-0.21725 1.51263,-0.49648 3.82619,-1.66896 5.14201,-2.60645 4.78198,-3.40756 10.51668,-11.86089 12.97671,-19.12667 0.29749,-0.8764 0.53396,-1.52841 0.62549,-1.99209 7.6e-4,-0.005 -7.6e-4,-0.008 0,-0.0157 0.0763,-0.0847 0.0763,-0.15451 0,-0.21099 0.0763,-0.52706 -0.19833,-0.73961 -0.94129,-0.71373 z m -250.73139,0.006 c -1.15258,0.0706 -0.73228,0.99922 0.1068,3.38222 3.53327,10.1189 10.56779,18.63583 17.43068,21.10017 3.27774,1.17695 9.1711,1.40369 10.0735,0.39059 0.87339,-0.98001 0.75516,-3.2205 -0.37378,-6.89473 -2.8849,-9.41223 -9.3168,-14.34921 -22.28283,-17.10978 -2.63394,-0.56079 -4.16105,-0.91656 -4.94979,-0.86879 z m 46.32925,8.5083 c -0.86883,0.0157 -5.70802,7.72657 -7.76757,12.3808 -4.08248,9.22259 -4.22971,18.25803 -0.41953,25.56218 0.69414,1.32895 1.44016,2.41413 1.66594,2.41413 0.6255,0 4.19234,-3.05202 5.72098,-4.89651 5.11074,-6.16499 6.06271,-16.96006 2.66216,-30.12974 -0.67889,-2.63139 -1.23115,-4.91235 -1.23115,-5.06403 0,-0.15138 -0.28224,-0.27217 -0.63312,-0.26667 z m 158.17512,0.0157 c -0.28987,0.0157 -0.50345,0.12157 -0.50345,0.25411 0,0.15138 -0.55684,2.44834 -1.24336,5.1013 -4.1252,15.97465 -2.1877,26.71065 6.02305,33.39408 1.09613,0.89153 2.23805,1.53131 2.53553,1.42111 0.96494,-0.35687 3.31588,-6.27237 3.88645,-9.77428 1.04809,-6.42601 -0.38139,-13.68215 -4.09774,-20.75264 -2.51037,-4.77862 -5.76446,-9.62549 -6.47081,-9.644 -0.0763,-9e-4 -0.0839,-0.003 -0.12967,0 z m -199.6339,17.12093 c -0.1907,0.006 -0.30513,0.0549 -0.36615,0.16157 -0.38903,0.0471 -0.61024,0.11843 -0.61024,0.20471 0,1.27052 1.59883,4.65071 3.68812,7.81324 4.2343,6.41009 9.80042,11.36464 14.69682,13.08207 2.74759,0.96384 9.35723,1.02039 10.99648,0.0933 0.69414,-0.39451 1.34634,-1.29593 1.43635,-2.00456 0.22121,-1.73994 -2.4051,-7.88846 -4.52644,-10.5997 -1.89479,-2.42214 -7.90105,-6.97182 -10.3153,-7.81324 -1.70715,-0.5953 -10.50295,-1.0248 -14.25592,-0.8564 -0.32037,-0.0549 -0.57209,-0.0863 -0.74754,-0.0808 z m 237.68907,0.0392 c -4.25716,0.0549 -10.20545,0.45412 -11.65477,0.95569 -0.94434,0.32628 -2.08625,0.9397 -2.53554,1.36527 -0.45005,0.42589 -1.86122,1.44166 -3.13814,2.259 -3.1229,1.99868 -5.83235,5.48961 -7.64705,9.84259 -1.72315,4.13164 -1.70332,5.86883 0.0915,6.93198 0.86196,0.51059 2.74073,0.68784 5.87888,0.55844 3.99248,-0.16472 5.06497,-0.44393 7.99106,-2.06034 3.87653,-2.14182 8.38771,-6.60068 11.73944,-11.60511 2.1488,-3.20865 3.77814,-6.61786 3.77814,-7.91873 0,-0.26667 -1.94818,-0.36157 -4.50279,-0.32863 z m -185.22161,0.16158 c -0.67888,0 -3.47148,6.43698 -5.17253,11.94017 -1.09689,3.54896 -1.35014,5.06443 -1.39362,9.56329 -0.10679,1.57256 -0.10679,3.08489 0,4.53658 0.0763,3.77918 0.31274,4.89511 1.29751,7.24854 0.72466,1.73405 2.06337,4.09807 2.96957,5.25635 0.90621,1.15836 2.04125,2.10378 2.52334,2.10378 1.16937,0 3.83534,-3.80732 5.47993,-7.82563 1.90242,-4.6485 2.15033,-11.29311 0.64838,-17.52547 -1.15945,-4.82232 -5.51426,-15.29761 -6.36173,-15.29761 z m 136.27827,0.0235 c -0.84365,0.0392 -5.1855,10.39672 -6.30071,15.03699 -2.05955,8.56501 -1.00002,16.57488 2.97492,22.48402 1.22047,1.81374 2.48519,3.10293 3.03593,3.10293 1.28684,0 3.96196,-3.5383 5.55927,-7.36022 1.18996,-2.84708 1.31581,-3.81822 1.31581,-9.97906 0,-5.98522 -0.17544,-7.37912 -1.40659,-11.36927 -1.72011,-5.56592 -4.49212,-11.9448 -5.17863,-11.91539 z m -123.76,16.28437 c -0.38903,-0.0235 -0.64838,0.29647 -0.86349,0.88746 -0.71703,1.96048 -0.91536,17.04579 -0.27461,20.73398 1.20446,6.89636 4.08402,11.74934 9.07729,15.30381 1.25861,0.8953 2.59732,1.63216 2.97567,1.63216 1.03893,0 2.6225,-4.55917 3.1145,-8.9552 0.99774,-8.91828 -1.56526,-15.70939 -9.57844,-25.33872 -2.45621,-2.95211 -3.7072,-4.22364 -4.45397,-4.26349 z m 111.2486,0 c -0.74754,0.0392 -1.99776,1.31099 -4.45473,4.26349 -5.95516,7.15684 -8.747,12.54998 -9.6204,18.57427 -0.54921,3.79274 0.12205,9.77364 1.49051,13.23728 1.08394,2.74896 1.39668,2.883 3.66982,1.56385 4.70874,-2.73295 8.80953,-9.28862 10.0735,-16.10436 0.61023,-3.30576 0.38902,-18.78353 -0.2975,-20.64707 -0.21359,-0.59059 -0.47294,-0.90824 -0.86272,-0.88746 z m -150.08794,6.83268 c -4.57602,0.0471 -12.79821,1.25178 -13.77306,2.34591 -0.48056,0.54275 2.30975,4.76961 4.83994,7.32296 3.65303,3.68575 7.90182,6.73566 11.44959,8.21661 5.45476,2.27673 14.80817,1.37014 16.67093,-1.6135 0.67889,-1.08299 0.64837,-1.43177 -0.27461,-3.47532 -2.4318,-5.3493 -8.46095,-10.6215 -13.07358,-11.43131 -1.23954,-0.21804 -2.53401,-0.65334 -2.8788,-0.97436 -0.31274,-0.2902 -1.43177,-0.40628 -2.95736,-0.39059 z m 190.967,0.26667 c -5.52189,-0.008 -9.25654,0.94339 -13.08502,3.34497 -2.70488,1.6968 -6.44792,6.06884 -7.86443,9.18478 -0.93138,2.04786 -0.95808,2.39093 -0.27461,3.48152 0.41191,0.6651 1.8269,1.58292 3.13814,2.03554 3.78347,1.30621 9.62726,1.12825 13.38709,-0.40314 3.66676,-1.49373 7.86444,-4.4776 11.59451,-8.24147 2.5302,-2.55335 5.32432,-6.77991 4.84071,-7.32296 -0.81009,-0.90934 -7.36557,-2.07108 -11.73334,-2.079 z m -135.62074,12.54834 0.32801,1.91766 c 0.18307,1.05679 1.51033,4.61063 2.95736,7.89395 2.09693,4.75886 3.35173,6.78413 6.18629,9.98534 3.60421,4.0703 5.77666,5.57573 9.89271,6.86993 1.25328,0.39451 3.53099,0.66589 5.06344,0.60236 l 2.7888,-0.11764 0,-1.58872 c 0.0763,-0.41255 0.0763,-0.95931 0,-1.66943 l 0,-0.53334 c -0.0763,-7.14375 -4.43796,-14.18058 -11.16583,-17.98477 -3.48827,-1.97265 -10.04528,-4.37737 -13.54346,-4.96475 l -2.46231,-0.40941 z m 76.95478,0.14274 c -0.68651,0 -3.27087,0.65178 -5.74005,1.44598 -9.82635,3.16057 -15.54656,7.55928 -18.4513,14.1805 -1.51186,3.44765 -2.44399,8.95663 -1.82231,10.77351 0.64837,1.90589 9.16195,0.5302 12.97059,-2.09759 2.85135,-1.96762 6.06881,-5.54091 8.26262,-9.16619 2.26932,-3.75008 5.14888,-10.48699 5.67979,-13.28686 0.32037,-1.69153 0.24409,-1.84935 -0.89934,-1.84935 z m -109.15473,6.85756 c -0.90315,-0.003 -1.97641,0.0235 -3.31358,0.0706 -5.87354,0.20549 -6.37547,0.31921 -10.47779,2.40167 -2.36848,1.20259 -4.51728,2.40919 -4.77969,2.68095 -1.38447,1.43124 6.9079,7.71066 13.63424,10.32668 3.59888,1.40009 4.65077,1.56566 9.13144,1.40252 4.33192,-0.15765 5.46773,-0.41726 7.81638,-1.75625 2.67285,-1.52378 3.9513,-2.7168 4.01995,-4.12074 0,-0.004 0,-0.008 0,-0.0157 0.0763,-0.10823 0.0763,-0.20862 0.0763,-0.29804 0,-0.1545 -0.0763,-0.35529 -0.17544,-0.5898 -0.20596,-0.73099 -0.68652,-1.53664 -1.41804,-2.47618 -2.15718,-2.75721 -5.3022,-5.10718 -8.77598,-6.56586 -1.87342,-0.78668 -3.01686,-1.05381 -5.72784,-1.06118 z m 142.6339,0 c -2.71099,0.007 -3.86052,0.2745 -5.73395,1.06118 -4.76977,2.00307 -10.14597,6.93033 -10.34505,9.42062 0,0.0628 0,0.11765 0,0.16785 0,0.0549 0,0.11529 0,0.17961 0,0.007 0,0.0157 0,0.0235 0.18307,1.8804 2.37992,3.77682 6.08406,5.23165 3.82925,1.50417 10.12995,1.20848 15.03473,-0.70746 6.81331,-2.6619 14.9165,-8.78917 13.52592,-10.22737 -0.25935,-0.27217 -2.41807,-1.47836 -4.78655,-2.68097 -4.10156,-2.08291 -4.59738,-2.19649 -10.47168,-2.40174 -1.33718,-0.0471 -2.40967,-0.0706 -3.31359,-0.0706 z m -117.16945,13.44284 c -0.3585,-0.008 -0.64837,0.0235 -0.85738,0.11765 -0.64075,0.28314 -2.44323,0.80565 -4.00697,1.16048 -1.56449,0.35452 -4.41354,1.5026 -6.33198,2.55069 -4.48067,2.44794 -10.58,7.20578 -10.58,8.25387 0,1.27287 4.22133,3.3914 9.16197,4.59855 8.69588,2.12472 16.3864,0.77804 21.74047,-3.81038 2.10227,-1.80151 3.79644,-4.67643 3.79644,-6.44178 0,-1.82339 -9.48233,-6.33495 -12.92255,-6.42931 z m 91.70499,0 c -3.44021,0.0949 -12.92178,4.60593 -12.92178,6.42939 0,3.76081 5.09014,8.60274 11.14141,10.5935 3.23578,1.06455 11.92099,0.57098 16.71899,-0.9495 3.82161,-1.21154 7.09173,-3.05485 7.09173,-3.99666 0,-0.82142 -7.0536,-6.1944 -10.83401,-8.25387 -1.91844,-1.04495 -4.76673,-2.18959 -6.33122,-2.54441 -1.56449,-0.35451 -3.36775,-0.87711 -4.00773,-1.16048 -0.20596,-0.0926 -0.50345,-0.12785 -0.85739,-0.11765 z M 330.58163,347.17 c -2.24949,0 -3.52107,0.92635 -4.3632,3.18983 -0.91307,2.45044 -0.20596,6.00098 1.44779,7.30437 0.61023,0.48078 1.92529,0.87506 2.91541,0.87506 2.43027,0 3.91315,-1.29506 4.55695,-3.97799 0.41953,-1.73664 0.37377,-2.67296 -0.1907,-4.20144 -0.84289,-2.26348 -2.11372,-3.18983 -4.36397,-3.18983 z m -20.24921,4.20764 c -3.37385,-0.0235 -6.88653,1.09459 -10.74933,3.39461 -4.35252,2.59148 -12.05906,9.17914 -12.05906,10.30801 0,1.39052 4.02222,2.83837 10.88816,3.92215 3.24036,0.51138 10.25047,-0.16942 13.03086,-1.26598 5.528,-2.18071 10.04909,-6.80531 10.20012,-10.43836 0,-0.16627 0,-0.31686 0,-0.45882 l 0.0763,-0.1051 -0.0763,-0.0628 c -0.0763,-1.10071 -0.4653,-1.54519 -2.02141,-2.51956 -1.15182,-0.72157 -3.57065,-1.72111 -5.37772,-2.22174 -1.28913,-0.35686 -2.59122,-0.54274 -3.91162,-0.55216 z m 40.34204,0.0706 c -2.62173,0.0392 -5.216,0.71373 -7.87664,1.99829 -3.26095,1.57445 -3.78805,2.30292 -3.338,4.60475 0.79636,4.06748 7.69205,9.52407 13.50837,10.69279 6.84535,1.37585 20.6718,-1.09036 20.6718,-3.68631 0,-0.38431 -1.83528,-2.32746 -4.08019,-4.31925 -7.19242,-6.38091 -13.11707,-9.37631 -18.88534,-9.29027 z"
       id="path9618-1-5-5-6"
       inkscape:connector-curvature="0" />
  </g>
</svg>
