<?xml version="1.0" encoding="UTF-8" standalone="no"?>
<!-- Created with Inkscape (http://www.inkscape.org/) -->

<svg
   xmlns:dc="http://purl.org/dc/elements/1.1/"
   xmlns:cc="http://creativecommons.org/ns#"
   xmlns:rdf="http://www.w3.org/1999/02/22-rdf-syntax-ns#"
   xmlns:svg="http://www.w3.org/2000/svg"
   xmlns="http://www.w3.org/2000/svg"
   version="1.1"
   width="256"
   height="256"
   id="svg5257">
  <defs
     id="defs5259" />
  <metadata
     id="metadata5262">
    <rdf:RDF>
      <cc:Work
         rdf:about="">
        <dc:format>image/svg+xml</dc:format>
        <dc:type
           rdf:resource="http://purl.org/dc/dcmitype/StillImage" />
        <dc:title></dc:title>
      </cc:Work>
    </rdf:RDF>
  </metadata>
  <g
     transform="translate(-202.45465,-133.19325)"
     id="layer1">
    <path
       d="m 319.55974,138.84058 c -8.70561,1.04965 -17.51978,1.95523 -25.99462,3.98273 -1.96937,0.70567 -3.93772,2.10633 -3.91818,4.12162 -2.29301,5.6063 -8.2568,9.13551 -11.65084,14.12975 -4.08929,7.22718 -5.07592,15.41648 -8.00158,23.02791 -0.54759,2.01951 -1.72098,3.87757 -3.77345,4.99495 -9.9532,14.78321 -8.93145,20.23247 -12.03318,30.87072 3.78323,6.18296 6.82624,12.74321 11.1238,18.66076 3.57983,5.23874 4.39144,12.10069 10.02765,16.18592 2.71348,1.52579 5.80148,2.48945 8.30177,4.33084 2.6558,1.9226 5.82004,3.65502 7.39142,6.43252 0.44004,2.73437 -2.25488,4.86698 -3.80474,6.96934 -2.26562,2.29102 -4.13523,4.85983 -5.95498,7.42426 -6.31253,2.14105 -26.15626,7.54539 -27.70568,6.93224 -12.4043,5.40717 -16.23272,11.80827 -16.50789,12.52918 -2.03387,7.4629 -2.4211,15.26503 -4.81776,22.67301 -1.22718,3.7583 0.64536,7.74059 -0.94851,11.45225 17.3734,22.81803 11.34522,19.86259 21.0126,23.90069 7.04332,3.04833 11.48852,9.01579 18.02435,12.66832 6.10264,3.02286 11.62249,6.8197 16.48523,11.26646 1.52737,1.19671 4.01789,0.38468 5.95596,0.7246 9.92889,0.26593 19.93209,0.55852 29.71332,1.98173 8.25709,-1.33667 11.56619,-0.43217 19.39527,0.61222 10.51363,0.69618 21.14068,0.63511 31.68463,0.2203 4.71328,-2.02628 3.55363,-11.61724 5.37707,-15.63301 1.05801,-1.80358 1.40418,-3.77602 1.94394,-5.70472 3.81437,-8.27675 6.72769,-13.16549 0.61993,-20.28932 -1.07267,-0.94455 -0.88004,-2.33456 -1.42665,-3.43006 -1.93903,-1.87536 -1.62318,-4.74564 -2.52377,-7.05498 -1.7464,-7.69697 -1.91557,-15.63162 -2.55996,-23.4587 -0.20535,-3.19239 -0.57692,-7.40989 3.05768,-9.26433 5.49736,-2.69808 12.20332,-1.75557 17.95686,-3.57561 6.02441,-1.98619 9.96605,-6.64008 13.4129,-11.17014 3.45957,-4.42413 8.02505,-8.4344 10.11662,-13.55006 1.65646,-5.26414 -2.16882,-10.19237 -2.64601,-15.33989 0,-6.19251 3.65024,-11.7186 6.54364,-17.15949 3.00879,-5.40741 6.68445,-10.5551 9.67662,-15.94942 0.48892,-1.79741 -1.5391,-3.28198 -1.97523,-4.9404 -2.35266,-5.68871 -5.84546,-10.92358 -9.00092,-16.25793 -2.04269,-3.64771 -3.23367,-7.65471 -4.19977,-11.61938 0.19555,-2.99635 -3.24054,-4.60707 -5.89339,-5.58641 -7.72485,-2.67922 -16.14299,-4.45054 -22.82645,-8.92542 -2.3429,-1.49879 -3.01174,-4.06217 -3.27478,-6.47324 -0.47914,-2.87001 -1.47847,-6.20601 -4.79917,-7.48372 -6.26496,-2.99453 -14.10032,-3.91991 -19.05302,-8.67982 -4.77083,-4.82712 -9.89581,-4.33006 -15.63079,-8.4374 -11.48787,-5.64178 -13.51152,-3.13095 -26.89994,-6.10887 z m -4.30538,12.41694 c 2.84353,0.0517 5.23921,1.95213 8.18737,1.70145 5.10524,0.0896 11.06903,-0.94267 15.24926,2.30187 1.83441,1.41279 3.74118,3.17784 3.60819,5.49535 0.50848,7.59965 -0.54759,15.19462 -1.48923,22.73678 -6.58667,0.81066 -13.88519,-0.38382 -18.5905,-4.74943 -3.44588,-2.8812 -4.6672,-7.81657 -2.0955,-11.46378 0.0978,-0.39585 1.35821,-1.99239 0.24446,-1.51942 -7.08633,2.45135 -14.03381,5.22428 -20.54128,8.69798 -3.64829,1.92021 -6.70791,5.14312 -11.03089,5.79563 -2.32919,0.36316 -3.6219,-1.9388 -3.05963,-3.67569 0.85071,-4.53289 4.7679,-8.17707 5.36535,-12.74681 1.54888,-3.45899 4.23792,-6.75989 8.00158,-8.57061 4.98888,-0.96953 9.96409,-2.09928 14.72124,-3.76674 0.46935,-0.10244 0.93871,-0.22719 1.42665,-0.23666 z m 38.09527,12.36464 c 3.80474,0.14974 6.56516,3.00994 9.63554,4.69477 3.12027,2.23285 6.59058,4.14667 9.57297,6.48717 2.22554,4.02395 2.7301,8.65573 2.98728,13.09251 0,3.18799 0.0978,6.51014 1.92337,9.33488 1.24674,2.84024 -1.85493,5.07885 -3.88685,6.83536 -3.54562,2.60892 -5.70468,6.27927 -7.719,9.89075 -2.06714,2.55434 -4.12157,5.63735 -7.66423,6.73854 -3.06745,0.56626 -5.68219,-1.68328 -7.51561,-3.53928 -0.91916,-1.30204 -2.22358,-3.34642 -0.88005,-4.74021 1.24869,-0.3055 2.5492,-0.62907 3.49476,-1.53759 5.20011,-4.34916 9.26591,-9.73978 12.04394,-15.54909 0.54759,-1.2931 1.35038,-3.23377 -0.6356,-3.9669 -3.09775,-1.84677 -6.5231,-3.6897 -10.3073,-4.0761 -2.35755,0.19793 -3.81256,-1.83492 -3.91816,-3.6848 -0.88004,-6.53269 -0.51826,-13.15549 -0.8116,-19.72519 1.2262,-0.0862 2.4524,-0.1876 3.67956,-0.25474 z m -46.47918,13.61118 c 4.70043,-0.0862 8.64303,2.47827 12.82913,3.93961 3.73725,0.13421 6.36176,2.92094 9.2268,4.74537 0.79204,1.06315 4.07169,1.9856 3.18967,3.13377 -0.43023,1.02408 -4.12839,2.66416 -2.10135,3.19902 1.7601,0.48364 3.32854,1.44101 4.74736,2.35099 4.42176,0.57056 9.12806,0.70825 13.51166,-0.0431 1.86961,-2.1744 5.50519,-1.11572 7.5469,0.28228 2.3908,1.3874 3.22098,4.16165 2.09842,6.45988 -1.99673,4.77069 -8.31547,6.72788 -13.6769,6.98751 -6.24444,0.36918 -12.3725,-1.53955 -17.29587,-4.82256 -5.03974,-2.51304 -10.35522,-5.0551 -16.01295,-6.26833 -0.57692,0.0172 -2.06615,0.27366 -1.00325,0.81842 4.102,2.64185 7.46477,6.1672 10.07948,9.95365 0.90939,1.7356 -1.69557,2.67886 -3.23565,2.88411 -5.90999,1.2498 -12.24144,0.19535 -18.10158,1.31926 -1.27021,0.26075 0.53781,1.23544 0.90938,1.5467 2.9198,1.68362 5.68315,3.53928 8.19812,5.6137 2.70175,0.89301 5.79756,-0.10584 8.62935,-0.0689 9.20922,-0.53012 18.87213,-0.59551 27.43009,2.74746 2.34777,0.65319 4.97129,0.43289 7.14305,1.64681 5.04952,2.35814 9.76364,5.96196 11.52765,10.88169 0.7138,1.8053 2.65676,2.76992 3.8458,4.24891 1.87841,3.71939 0,7.93284 -1.43448,11.51643 -3.13002,6.39113 -7.41683,12.80576 -14.09346,16.74305 -2.62352,1.32512 -5.81711,1.69887 -8.05341,3.65753 -1.61145,1.519 -3.73433,2.55444 -5.77898,3.5392 -0.90937,2.4911 1.14112,5.00508 0.94849,7.56072 -0.11739,4.1392 -2.63035,7.66866 -3.85558,11.52764 -0.9485,4.30933 -0.41069,9.0139 -2.98728,12.94698 -1.19293,2.26012 -3.62089,3.93523 -4.00909,6.54888 -0.8996,3.66458 -1.74445,7.69919 -0.37158,11.32936 1.64081,1.24155 -2.90255,4.28794 -4.59127,5.95135 -2.11406,1.96615 0.20081,0.28178 -2.40802,-0.17416 -5.91393,-1.26796 -11.00353,-4.55664 -17.03871,-5.48874 -3.63361,-0.57314 -7.19291,-1.38862 -10.63585,-2.50874 -2.34387,-0.17813 -4.89501,-0.37779 -6.62674,-1.94703 -4.24966,-3.53111 -6.29528,-9.29059 -4.70436,-14.30257 1.87451,-3.76862 4.47651,-7.29034 6.65804,-10.92712 2.47197,-3.69359 5.81712,-6.8166 8.08959,-10.68548 2.89048,-4.62532 6.34515,-8.94488 9.87806,-13.16134 1.64373,-1.95558 -0.39115,-4.11199 -1.89211,-5.49537 -7.07363,-6.67279 -16.40114,-12.33838 -19.51162,-21.43205 -3.68251,-10.43213 -7.42859,-20.87191 -10.71605,-31.38391 -1.65839,-3.002 -1.49704,-6.64938 0.56715,-9.46225 4.61634,-6.6067 11.47483,-11.66179 17.69872,-17.06852 4.27311,-3.2343 8.16194,-7.4776 13.85293,-8.68894 0.50846,-0.0878 1.01499,-0.1282 1.5303,-0.14544 z m -8.69487,35.17419 0,0.008 z m 95.51346,-23.06431 c 4.79528,-0.13335 9.04201,3.1583 10.00711,7.23321 3.04692,8.82096 -0.62582,19.16376 -9.03612,24.6679 -3.62189,2.56227 -6.38817,6.24241 -10.99864,7.49472 -4.2252,1.13036 -9.33826,2.48784 -13.40898,0.2642 -2.78975,-1.82475 -1.72783,-5.41206 0,-7.56204 2.84548,-3.80492 7.07655,-6.56735 9.80176,-10.48917 4.06974,-5.46275 8.07591,-11.4833 8.33211,-18.12392 0.44001,-2.19946 2.92957,-3.49522 5.32428,-3.48464 z m 23.3232,25.2024 c 2.85038,-0.216 4.61635,2.35669 4.45499,4.61293 0,3.20358 -1.22228,6.32349 -2.00552,9.38946 -2.15025,3.90777 -5.99117,6.91109 -8.69389,10.51775 -2.76922,1.99172 -6.12611,3.50623 -9.59446,4.27618 -3.12906,0.2315 -5.73693,-1.77647 -8.38197,-2.95202 -1.7992,-0.83303 -3.54268,-2.72234 -2.4211,-4.5723 2.47392,-3.86493 6.57983,-6.63124 9.81937,-10.00538 4.62708,-4.08978 8.77407,-9.27327 15.27176,-11.06645 0.50845,-0.1239 1.02573,-0.17986 1.55082,-0.20051 z m -32.49328,32.47209 c 5.4152,0.005 9.40771,4.09694 11.53838,8.09697 2.19426,3.55175 5.61471,6.848 5.49933,11.13693 0.24445,4.77601 -2.90807,8.85504 -6.05472,12.47091 -0.99741,0.9277 -1.1783,2.13052 -1.82268,3.17825 -3.29334,3.23001 -8.22845,4.58714 -12.79881,5.86843 -12.12728,0.38103 -17.16515,4.69061 -20.22155,13.91843 -1.57038,3.62232 -2.30669,7.45325 -2.41915,11.31602 -0.43025,3.78479 -4.18316,6.63106 -4.05212,10.54735 0,4.6446 -2.33799,9.43714 -6.55439,12.27368 -2.53713,1.14401 -15.79324,-3.2864 -16.56151,-3.73963 -3.02345,-1.66021 -2.23922,-5.43272 -0.70404,-7.72451 2.94619,-3.7052 4.53908,-7.97528 6.74018,-12.02798 1.21643,-2.32603 3.15741,-4.31731 5.70663,-5.57728 2.17096,-3.36568 6.9275,-6.84338 7.1274,-10.32557 3.2745,-4.01461 -3.07933,-6.67039 -2.62156,-9.34506 0.92893,-4.07498 4.71607,-7.01454 7.73658,-10.00882 4.18413,-3.60122 8.40933,-7.21943 11.70952,-11.49062 4.82754,-5.06345 10.30536,-9.8503 13.26329,-16.05855 0.85072,-1.4807 2.59907,-2.46253 4.48627,-2.51115 z m -127.38487,53.83487 c 2.80149,-0.22719 3.8595,2.5035 4.37579,4.43918 0.88983,3.67946 2.16297,7.24034 4.21543,10.51852 1.03651,2.43793 0.80182,5.10725 1.89309,7.5394 1.69751,5.00295 7.94548,4.96885 10.92004,9.48833 18.48992,7.80918 12.81683,2.28593 30.46171,8.16897 1.99184,0.82185 3.96803,1.6412 6.21313,1.55584 5.8093,0.75989 11.14042,3.51768 17.0475,3.81216 4.15479,-0.53786 8.22845,1.05464 12.22972,1.72872 4.29365,1.81004 9.218,1.02115 13.81185,0.94619 0.26402,-2.62396 0.19557,-6.39018 3.47325,-7.60617 2.93153,-0.75559 5.02409,1.72579 6.96802,3.17526 1.13037,0.84509 2.82788,0.80118 3.70108,2.01985 1.85396,1.86968 4.22227,4.65192 2.41916,7.16041 -4.29169,6.31995 -3.63157,15.25102 -8.96662,20.89302 -8.60454,-1.33735 -25.59611,-0.97295 -31.95165,-2.04157 -11.64955,-0.70873 -25.59189,0.1749 -34.42616,0.53641 -4.67643,2.35553 -20.30636,-9.43309 -24.26517,-13.72412 -3.85264,-4.96654 -8.93639,-8.99609 -14.25481,-12.7173 -4.17141,-3.45899 -7.99277,-7.39396 -11.38096,-11.49054 -4.69065,-5.71773 -3.78028,-13.16582 -3.93675,-19.86168 0.24447,-3.85029 -0.44001,-8.16262 2.13756,-11.50036 2.18251,-2.32708 6.13,-2.67251 9.31479,-3.03885 z"
       id="path10518-28-0-17-6"
       style="fill:#010101" />
  </g>
</svg>
