<?xml version="1.0" encoding="UTF-8" standalone="no"?>
<!-- Created with Inkscape (http://www.inkscape.org/) -->

<svg
   xmlns:dc="http://purl.org/dc/elements/1.1/"
   xmlns:cc="http://creativecommons.org/ns#"
   xmlns:rdf="http://www.w3.org/1999/02/22-rdf-syntax-ns#"
   xmlns:svg="http://www.w3.org/2000/svg"
   xmlns="http://www.w3.org/2000/svg"
   xmlns:sodipodi="http://sodipodi.sourceforge.net/DTD/sodipodi-0.dtd"
   xmlns:inkscape="http://www.inkscape.org/namespaces/inkscape"
   width="256"
   height="256"
   id="svg5257"
   version="1.1"
   inkscape:version="0.48.3.1 r9886"
   sodipodi:docname="assassin.svg">
  <defs
     id="defs5259">
    <inkscape:perspective
       sodipodi:type="inkscape:persp3d"
       inkscape:vp_x="0 : 526.18109 : 1"
       inkscape:vp_y="0 : 1000 : 0"
       inkscape:vp_z="744.09448 : 526.18109 : 1"
       inkscape:persp3d-origin="372.04724 : 350.78739 : 1"
       id="perspective5265" />
    <inkscape:perspective
       id="perspective5250"
       inkscape:persp3d-origin="0.5 : 0.33333333 : 1"
       inkscape:vp_z="1 : 0.5 : 1"
       inkscape:vp_y="0 : 1000 : 0"
       inkscape:vp_x="0 : 0.5 : 1"
       sodipodi:type="inkscape:persp3d" />
    <inkscape:perspective
       id="perspective5288"
       inkscape:persp3d-origin="0.5 : 0.33333333 : 1"
       inkscape:vp_z="1 : 0.5 : 1"
       inkscape:vp_y="0 : 1000 : 0"
       inkscape:vp_x="0 : 0.5 : 1"
       sodipodi:type="inkscape:persp3d" />
    <inkscape:perspective
       id="perspective5316"
       inkscape:persp3d-origin="0.5 : 0.33333333 : 1"
       inkscape:vp_z="1 : 0.5 : 1"
       inkscape:vp_y="0 : 1000 : 0"
       inkscape:vp_x="0 : 0.5 : 1"
       sodipodi:type="inkscape:persp3d" />
    <inkscape:perspective
       sodipodi:type="inkscape:persp3d"
       inkscape:vp_x="0 : 0.5 : 1"
       inkscape:vp_y="0 : 1000 : 0"
       inkscape:vp_z="1 : 0.5 : 1"
       inkscape:persp3d-origin="0.5 : 0.33333333 : 1"
       id="perspective5344" />
    <inkscape:perspective
       sodipodi:type="inkscape:persp3d"
       inkscape:vp_x="0 : 0.5 : 1"
       inkscape:vp_y="0 : 1000 : 0"
       inkscape:vp_z="1 : 0.5 : 1"
       inkscape:persp3d-origin="0.5 : 0.33333333 : 1"
       id="perspective5316-1" />
    <inkscape:perspective
       sodipodi:type="inkscape:persp3d"
       inkscape:vp_x="0 : 0.5 : 1"
       inkscape:vp_y="0 : 1000 : 0"
       inkscape:vp_z="1 : 0.5 : 1"
       inkscape:persp3d-origin="0.5 : 0.33333333 : 1"
       id="perspective5288-9" />
    <inkscape:perspective
       sodipodi:type="inkscape:persp3d"
       inkscape:vp_x="0 : 0.5 : 1"
       inkscape:vp_y="0 : 1000 : 0"
       inkscape:vp_z="1 : 0.5 : 1"
       inkscape:persp3d-origin="0.5 : 0.33333333 : 1"
       id="perspective5250-0" />
    <inkscape:perspective
       id="perspective5265-4"
       inkscape:persp3d-origin="372.04724 : 350.78739 : 1"
       inkscape:vp_z="744.09448 : 526.18109 : 1"
       inkscape:vp_y="0 : 1000 : 0"
       inkscape:vp_x="0 : 526.18109 : 1"
       sodipodi:type="inkscape:persp3d" />
    <inkscape:perspective
       sodipodi:type="inkscape:persp3d"
       inkscape:vp_x="0 : 0.5 : 1"
       inkscape:vp_y="0 : 1000 : 0"
       inkscape:vp_z="1 : 0.5 : 1"
       inkscape:persp3d-origin="0.5 : 0.33333333 : 1"
       id="perspective5400" />
    <inkscape:perspective
       sodipodi:type="inkscape:persp3d"
       inkscape:vp_x="0 : 0.5 : 1"
       inkscape:vp_y="0 : 1000 : 0"
       inkscape:vp_z="1 : 0.5 : 1"
       inkscape:persp3d-origin="0.5 : 0.33333333 : 1"
       id="perspective5372" />
    <inkscape:perspective
       sodipodi:type="inkscape:persp3d"
       inkscape:vp_x="0 : 0.5 : 1"
       inkscape:vp_y="0 : 1000 : 0"
       inkscape:vp_z="1 : 0.5 : 1"
       inkscape:persp3d-origin="0.5 : 0.33333333 : 1"
       id="perspective5344-0" />
    <inkscape:perspective
       sodipodi:type="inkscape:persp3d"
       inkscape:vp_x="0 : 0.5 : 1"
       inkscape:vp_y="0 : 1000 : 0"
       inkscape:vp_z="1 : 0.5 : 1"
       inkscape:persp3d-origin="0.5 : 0.33333333 : 1"
       id="perspective5316-0" />
    <inkscape:perspective
       sodipodi:type="inkscape:persp3d"
       inkscape:vp_x="0 : 0.5 : 1"
       inkscape:vp_y="0 : 1000 : 0"
       inkscape:vp_z="1 : 0.5 : 1"
       inkscape:persp3d-origin="0.5 : 0.33333333 : 1"
       id="perspective5288-4" />
    <inkscape:perspective
       sodipodi:type="inkscape:persp3d"
       inkscape:vp_x="0 : 0.5 : 1"
       inkscape:vp_y="0 : 1000 : 0"
       inkscape:vp_z="1 : 0.5 : 1"
       inkscape:persp3d-origin="0.5 : 0.33333333 : 1"
       id="perspective5250-9" />
    <inkscape:perspective
       id="perspective5265-3"
       inkscape:persp3d-origin="372.04724 : 350.78739 : 1"
       inkscape:vp_z="744.09448 : 526.18109 : 1"
       inkscape:vp_y="0 : 1000 : 0"
       inkscape:vp_x="0 : 526.18109 : 1"
       sodipodi:type="inkscape:persp3d" />
    <inkscape:perspective
       sodipodi:type="inkscape:persp3d"
       inkscape:vp_x="0 : 0.5 : 1"
       inkscape:vp_y="0 : 1000 : 0"
       inkscape:vp_z="1 : 0.5 : 1"
       inkscape:persp3d-origin="0.5 : 0.33333333 : 1"
       id="perspective5250-3" />
    <inkscape:perspective
       id="perspective5265-2"
       inkscape:persp3d-origin="372.04724 : 350.78739 : 1"
       inkscape:vp_z="744.09448 : 526.18109 : 1"
       inkscape:vp_y="0 : 1000 : 0"
       inkscape:vp_x="0 : 526.18109 : 1"
       sodipodi:type="inkscape:persp3d" />
    <inkscape:perspective
       sodipodi:type="inkscape:persp3d"
       inkscape:vp_x="0 : 0.5 : 1"
       inkscape:vp_y="0 : 1000 : 0"
       inkscape:vp_z="1 : 0.5 : 1"
       inkscape:persp3d-origin="0.5 : 0.33333333 : 1"
       id="perspective5372-3" />
    <inkscape:perspective
       sodipodi:type="inkscape:persp3d"
       inkscape:vp_x="0 : 0.5 : 1"
       inkscape:vp_y="0 : 1000 : 0"
       inkscape:vp_z="1 : 0.5 : 1"
       inkscape:persp3d-origin="0.5 : 0.33333333 : 1"
       id="perspective5344-6" />
    <inkscape:perspective
       sodipodi:type="inkscape:persp3d"
       inkscape:vp_x="0 : 0.5 : 1"
       inkscape:vp_y="0 : 1000 : 0"
       inkscape:vp_z="1 : 0.5 : 1"
       inkscape:persp3d-origin="0.5 : 0.33333333 : 1"
       id="perspective5316-9" />
    <inkscape:perspective
       sodipodi:type="inkscape:persp3d"
       inkscape:vp_x="0 : 0.5 : 1"
       inkscape:vp_y="0 : 1000 : 0"
       inkscape:vp_z="1 : 0.5 : 1"
       inkscape:persp3d-origin="0.5 : 0.33333333 : 1"
       id="perspective5288-5" />
    <inkscape:perspective
       sodipodi:type="inkscape:persp3d"
       inkscape:vp_x="0 : 0.5 : 1"
       inkscape:vp_y="0 : 1000 : 0"
       inkscape:vp_z="1 : 0.5 : 1"
       inkscape:persp3d-origin="0.5 : 0.33333333 : 1"
       id="perspective5250-30" />
    <inkscape:perspective
       id="perspective5265-5"
       inkscape:persp3d-origin="372.04724 : 350.78739 : 1"
       inkscape:vp_z="744.09448 : 526.18109 : 1"
       inkscape:vp_y="0 : 1000 : 0"
       inkscape:vp_x="0 : 526.18109 : 1"
       sodipodi:type="inkscape:persp3d" />
    <inkscape:perspective
       sodipodi:type="inkscape:persp3d"
       inkscape:vp_x="0 : 0.5 : 1"
       inkscape:vp_y="0 : 1000 : 0"
       inkscape:vp_z="1 : 0.5 : 1"
       inkscape:persp3d-origin="0.5 : 0.33333333 : 1"
       id="perspective5288-97" />
    <inkscape:perspective
       sodipodi:type="inkscape:persp3d"
       inkscape:vp_x="0 : 0.5 : 1"
       inkscape:vp_y="0 : 1000 : 0"
       inkscape:vp_z="1 : 0.5 : 1"
       inkscape:persp3d-origin="0.5 : 0.33333333 : 1"
       id="perspective5250-98" />
    <inkscape:perspective
       id="perspective5265-57"
       inkscape:persp3d-origin="372.04724 : 350.78739 : 1"
       inkscape:vp_z="744.09448 : 526.18109 : 1"
       inkscape:vp_y="0 : 1000 : 0"
       inkscape:vp_x="0 : 526.18109 : 1"
       sodipodi:type="inkscape:persp3d" />
  </defs>
  <sodipodi:namedview
     id="base"
     pagecolor="#ffffff"
     bordercolor="#666666"
     borderopacity="1.0"
     inkscape:pageopacity="0.0"
     inkscape:pageshadow="2"
     inkscape:zoom="1.99"
     inkscape:cx="64.769472"
     inkscape:cy="104.05065"
     inkscape:document-units="px"
     inkscape:current-layer="layer1"
     showgrid="false"
     inkscape:window-width="1440"
     inkscape:window-height="876"
     inkscape:window-x="0"
     inkscape:window-y="24"
     inkscape:window-maximized="1" />
  <metadata
     id="metadata5262">
    <rdf:RDF>
      <cc:Work
         rdf:about="">
        <dc:format>image/svg+xml</dc:format>
        <dc:type
           rdf:resource="http://purl.org/dc/dcmitype/StillImage" />
        <dc:title></dc:title>
      </cc:Work>
    </rdf:RDF>
  </metadata>
  <g
     inkscape:label="Calque 1"
     inkscape:groupmode="layer"
     id="layer1"
     transform="translate(-202.45465,-133.19325)">
    <path
       style="fill:#0a0000;fill-opacity:1"
       d="m 330.95938,139.33206 c -24.56091,1.48564 -50.61317,4.94799 -71.02269,18.49956 -26.01347,17.83795 -35.22166,51.74963 -23.34353,79.12236 2.57335,10.93454 13.73261,18.71246 14.51418,29.8233 0.37966,9.89058 -1.3362,21.42658 5.31429,29.59908 9.89071,6.15128 19.26891,14.95444 17.13873,26.93776 -0.0825,14.86908 -1.18434,31.40473 9.28575,43.9036 9.13968,10.55586 23.08689,17.31865 37.9213,17.63669 18.96519,1.34822 40.50623,0.24804 54.45012,-13.26863 12.97663,-9.31332 12.41374,-26.16511 13.13839,-39.85205 0,-12.0091 4.02512,-24.80851 15.07459,-32.22159 9.85276,-9.67945 11.36476,-24.38852 8.29124,-36.84652 3.63474,-9.47439 12.989,-16.81702 15.70762,-27.0041 11.09074,-27.23206 -0.0825,-59.41469 -24.54109,-77.40046 -15.93707,-11.95988 -37.11744,-15.28596 -56.91703,-18.14723 -4.98002,-0.53335 -9.99967,-0.82635 -15.01187,-0.78177 z m 0.27235,7.38728 c 20.93195,0.23739 42.40366,3.88736 61.04036,12.85023 26.923,15.51026 39.40442,49.39195 27.01048,76.45982 -0.52822,5.20903 -10.84563,18.86958 -10.22415,5.85067 -0.0825,-14.18636 10.19527,-28.71519 2.7079,-42.56557 -10.61866,-1.24689 -1.44268,16.76065 -6.69341,22.76129 -5.12115,12.50564 -4.27435,25.92641 -1.46083,38.77893 1.58712,11.08588 5.4224,26.30777 -7.10358,33.43576 -11.65692,5.67324 -28.09992,8.45218 -32.57319,21.55029 0,11.94201 -16.15494,9.48399 -24.99254,10.47173 -12.05308,-0.12401 -24.69874,0.86189 -36.25827,-2.64839 -2.9167,-11.24749 -11.87975,-21.28567 -24.44949,-24.63267 -10.97684,-2.04502 -20.83372,-10.01299 -20.01912,-20.96474 -0.53647,-17.13536 8.22934,-34.43431 1.40719,-51.27606 -6.72478,-7.67641 3.14035,-23.96563 -7.00456,-27.36878 -7.55092,10.43565 -1.19425,23.73799 1.12905,34.94774 2.03443,5.22022 1.47651,24.12137 -5.3605,11.10497 -9.79251,-18.95091 -13.81267,-42.1321 -2.49001,-61.34649 9.57215,-18.72167 30.44879,-29.88296 51.92462,-33.82015 10.94383,-2.3295 22.17653,-3.51545 33.41005,-3.58858 z m -24.15237,92.21857 c -11.2789,1.27649 -23.58701,1.29224 -33.741,6.27385 -9.08438,7.5874 -2.50158,19.9573 2.80364,27.81654 6.61829,10.73742 24.1243,9.85018 30.12029,-0.90077 6.39629,-7.6249 16.03446,-17.99871 9.26183,-27.93342 -1.93375,-2.54588 -4.75637,-5.33114 -8.44476,-5.2562 z m 45.9732,0.13999 c -8.80541,3.62022 -9.43761,14.33071 -4.75306,21.16037 5.50493,8.06474 11.03711,19.03924 22.31601,20.87328 13.70373,-8e-5 21.12507,-13.73152 23.59692,-24.36029 2.57668,-11.82922 -12.73479,-16.06552 -22.75921,-16.32878 -6.10246,-0.87992 -12.2561,-1.06184 -18.40066,-1.34458 z m -25.14606,35.22097 c -11.9623,6.95313 -15.80254,21.4755 -12.4971,33.57536 2.46855,6.96366 12.94773,0.29446 13.48996,-4.18462 -0.22284,-9.78503 0.64376,-19.72402 -0.99286,-29.39074 z m 6.84114,0 c -1.7431,10.01885 -0.66027,20.29016 -0.95573,30.42437 3.7511,5.41743 14.96646,10.2688 14.55464,-0.27543 1.18351,-11.41595 -2.6749,-23.708 -13.59891,-30.14872 z m 50.1386,33.89052 c -1.93373,10.47865 -4.64824,21.62235 -3.87408,32.66509 1.69688,18.95212 -17.00009,35.98622 -37.23132,36.69116 -18.78692,1.85046 -41.84904,1.68581 -54.00693,-13.9025 -9.11078,-9.82963 -8.1501,-22.95012 -8.39522,-34.95853 0.38789,-6.82882 -2.77063,-14.40778 -3.29801,-20.26856 6.92037,10.27777 8.4365,22.64812 11.37383,34.16732 10.08963,13.84992 30.54205,14.94022 47.05024,14.37612 13.04182,-0.4451 28.93018,-2.5939 36.05689,-13.91778 4.25538,-11.44813 4.10353,-24.89343 12.17109,-34.81732 l 0.15681,-0.038 8.2e-4,-7e-5 0,0 z m -98.78751,3.04592 c 8.8929,5.39744 10.29926,17.52629 9.58288,26.77662 -2.96622,9.08064 -5.38279,-9.82089 -6.83536,-13.24237 -0.36315,-4.26825 -4.27684,-9.99087 -2.74752,-13.53425 z m 89.19473,1.22535 c -0.13211,8.91647 -3.27241,20.31513 -7.18281,29.01262 -2.65756,-8.965 -0.0825,-20.00135 5.46366,-27.89247 l 1.71915,-1.12037 0,2.2e-4 0,0 z m -74.02275,14.49452 c 7.49729,2.51569 -1.2355,14.91678 -2.64104,3.91331 -0.33012,-1.55366 0.45394,-3.97859 2.64104,-3.91331 z m 59.99798,0.21 c 8.05601,1.72166 -2.7211,14.89716 -2.78135,4.20753 0.0825,-1.58669 0.62724,-3.96687 2.78135,-4.20753 z m -51.89656,1.29536 c 8.42081,0.4002 0.25585,18.15848 -2.30349,6.11072 0,-1.85617 -1.01267,-6.18811 2.30349,-6.11072 z m 43.37423,0.17499 c 8.83678,2.26772 -3.76596,18.23609 -2.96953,5.14087 0.20634,-1.8259 0,-5.30437 2.96953,-5.14087 z m -34.24034,0.55998 c 8.23263,3.32479 -2.37777,18.59781 -2.90762,5.48973 0.17332,-1.88411 0.3879,-5.05558 2.90762,-5.48973 z m 25.37468,0.14001 c 8.67419,2.40909 -2.61959,18.00182 -1.52851,4.62143 0.42918,-1.16564 -0.72629,-4.39112 1.52851,-4.62143 z m -7.68132,0.13999 c 7.34211,3.56042 -1.3849,17.90474 -3.62979,5.84678 -0.18156,-2.39204 0.67677,-5.25117 3.62979,-5.84678 z m -9.13307,0.28001 c 7.87939,2.15929 -0.90786,18.74973 -2.89029,6.69772 0.42092,-2.03689 -0.66851,-6.70069 2.89029,-6.69772 z m 34.92866,9.52292 c 8.01145,2.87969 -5.35883,15.1035 -3.36321,3.15107 0.3384,-1.50116 1.46744,-3.15404 3.36321,-3.15107 z m -60.83898,0.175 c 8.44476,2.75178 -2.33319,14.49284 -2.7896,3.3263 0,-1.43451 0.97802,-3.31511 2.7896,-3.3263 z m 7.87198,2.31072 c 8.65272,0.94962 0.29712,16.33972 -2.0955,5.95787 0.28061,-1.71603 -0.54472,-5.42863 2.0955,-5.95787 z m 44.36876,0.038 c 8.46537,4.2719 -6.34512,16.07784 -3.41522,3.69479 0.39616,-1.61264 1.36179,-3.46448 3.41522,-3.69479 z m -9.40131,1.26035 c 8.50582,2.544 -2.41408,17.17226 -1.6424,5.18165 0.42918,-1.35081 -0.60249,-4.82838 1.6424,-5.18165 z m -8.75177,0.63075 c 8.12123,2.69632 0.13211,17.15697 -2.49083,5.57844 0.12382,-1.90015 0.13211,-4.77969 2.49083,-5.57844 z m -16.96707,0.245 c 9.47805,3.10025 -4.05814,14.43759 -2.79869,3.81926 0.24761,-1.31932 0.7428,-3.84399 2.79869,-3.81926 z m 8.78973,0.38499 c 7.80843,2.14902 -2.3629,16.15698 -2.99098,4.71988 0.0908,-1.77538 0.20632,-4.89008 2.99098,-4.71988 z"
       id="path10314-5-90-5"
       inkscape:connector-curvature="0" />
  </g>
</svg>
