<?xml version="1.0" encoding="UTF-8" standalone="no"?>
<!-- Created with Inkscape (http://www.inkscape.org/) -->

<svg
   xmlns:dc="http://purl.org/dc/elements/1.1/"
   xmlns:cc="http://creativecommons.org/ns#"
   xmlns:rdf="http://www.w3.org/1999/02/22-rdf-syntax-ns#"
   xmlns:svg="http://www.w3.org/2000/svg"
   xmlns="http://www.w3.org/2000/svg"
   xmlns:sodipodi="http://sodipodi.sourceforge.net/DTD/sodipodi-0.dtd"
   xmlns:inkscape="http://www.inkscape.org/namespaces/inkscape"
   version="1.1"
   width="256"
   height="256"
   id="svg5257"
   inkscape:version="0.48.3.1 r9886"
   sodipodi:docname="reporter.svg">
  <sodipodi:namedview
     pagecolor="#ffffff"
     bordercolor="#666666"
     borderopacity="1"
     objecttolerance="10"
     gridtolerance="10"
     guidetolerance="10"
     inkscape:pageopacity="0"
     inkscape:pageshadow="2"
     inkscape:window-width="640"
     inkscape:window-height="480"
     id="namedview3368"
     showgrid="false"
     inkscape:zoom="1.166748"
     inkscape:cx="128"
     inkscape:cy="128"
     inkscape:window-x="0"
     inkscape:window-y="24"
     inkscape:window-maximized="0"
     inkscape:current-layer="svg5257" />
  <defs
     id="defs5259" />
  <metadata
     id="metadata5262">
    <rdf:RDF>
      <cc:Work
         rdf:about="">
        <dc:format>image/svg+xml</dc:format>
        <dc:type
           rdf:resource="http://purl.org/dc/dcmitype/StillImage" />
        <dc:title />
      </cc:Work>
    </rdf:RDF>
  </metadata>
  <g
     transform="matrix(1.2109027,0,0,1.3392221,-271.22209,-220.83083)"
     id="layer1">
    <path
       d="m 333.41521,195.19407 c -1.39003,-0.024 -2.79341,-0.005 -4.18405,0.03 -13.05494,0.49311 -25.63562,4.59846 -37.78332,9.08666 -19.01766,7.52776 -35.31783,20.60693 -48.22703,36.15749 -4.67046,5.6778 -11.34247,9.93906 -14.69152,16.62739 0.50402,2.69732 3.85248,2.79294 5.65301,1.38822 10.43036,-6.39893 16.52789,-17.50929 25.61498,-25.43011 18.07337,-17.15223 42.27707,-28.4311 67.38984,-30.35204 14.20267,-0.83824 28.58327,1.6814 41.51981,7.54066 14.57371,6.90963 26.06617,18.56992 36.66534,30.32055 6.18377,6.42809 13.72476,11.90372 22.35701,14.5134 2.30214,0.60902 4.75852,-1.4298 3.76868,-3.78608 -1.27525,-3.4064 -5.53278,-3.78704 -8.04867,-5.93161 -6.30582,-3.68872 -11.53618,-8.73662 -16.22486,-14.26103 -12.55092,-13.36028 -26.93092,-26.36829 -45.12878,-31.29862 -9.2887,-2.84357 -18.9539,-4.4474 -28.68044,-4.60644 z m -5.26983,31.39329 c -1.88495,-0.024 -3.74621,-0.006 -5.62144,0.03 -16.54975,0.024 -32.86631,4.79871 -47.20501,12.71503 -14.54882,7.53886 -23.34806,21.91632 -34.84477,32.84467 -5.86252,1.97337 -8.12519,9.44936 -5.20607,14.63968 2.358,5.38379 8.35169,8.73134 14.24457,8.14008 10.44797,0.78239 19.39721,6.54292 28.01003,11.86317 12.81993,6.69259 27.46166,9.38697 41.83923,10.38035 14.91742,0.5801 30.232,-0.005 44.33083,-5.01653 2.67075,-0.78845 5.27834,-1.7916 7.79301,-2.9974 -12.18049,6.43709 -26.22345,7.59466 -39.73142,8.992 -13.12721,0.93704 -26.17548,-1.20897 -38.80534,-4.60638 -7.09648,-1.56321 -14.06847,-3.81409 -19.96136,-8.17175 -7.50213,-4.64028 -16.15259,-8.38784 -25.23118,-7.76155 1.80054,5.38217 7.7505,7.23975 12.80718,8.32947 4.49983,0.77783 8.20231,3.58739 11.62545,6.34182 8.47193,5.24384 18.66485,6.57639 28.07379,9.43371 10.47104,2.02783 21.27911,2.52707 31.93841,2.20852 14.46441,-1.08515 29.33203,-3.14964 42.28618,-9.93857 6.54751,-3.28889 12.22542,-7.94866 17.5663,-12.84125 4.02434,-3.03584 10.01317,-5.84973 10.22025,-11.54768 0.28541,-1.64438 -1.88556,-2.09125 -2.74666,-0.85192 -4.50589,2.42161 -8.41727,5.74733 -12.2321,9.11828 3.71463,-3.93834 7.38371,-8.24585 9.61298,-13.15679 0.35828,-3.2136 3.35088,-6.7578 6.86693,-5.77379 4.23749,0.55851 7.23676,5.59454 11.81735,4.48022 2.44484,-1.35049 1.08335,-4.58826 -0.44938,-6.12088 -1.87523,-2.67357 -5.21396,-3.50173 -7.79301,-5.20598 -14.70549,-11.39957 -23.7695,-29.19651 -40.84939,-37.57721 -11.8222,-6.01398 -25.16378,-7.80042 -38.35779,-7.95087 z m 1.72462,7.22517 c 7.65699,0.012 16.32446,0.21297 22.13293,5.86851 17.61246,14.42335 19.59821,43.92066 3.48144,60.10472 -4.81256,5.35295 -11.16818,10.85708 -19.03527,9.93851 -11.47425,0.20997 -23.2758,0.46192 -34.33407,-2.808 -8.95592,-4.11872 -14.55671,-13.1445 -18.07701,-21.92803 -5.34574,-15.35662 -0.73722,-33.33383 11.01879,-44.64467 5.42893,-5.81668 14.23182,-6.06558 21.75035,-6.27866 4.35833,0.036 8.70512,-0.19857 13.06284,-0.25256 z m 31.71433,6.65725 0.38258,0.18957 0.18825,0.063 c 13.36283,6.37836 21.35806,19.44919 31.52304,29.56335 2.26388,3.49429 -0.49795,7.85375 -2.74665,10.69577 -3.75835,5.27917 -6.93738,11.06591 -12.32805,14.89212 -5.74593,4.57218 -12.92075,8.03738 -19.77007,9.7808 10.52388,-10.89211 15.63764,-26.6743 13.09503,-41.64734 -1.2291,-8.6245 -4.97713,-16.72427 -10.34838,-23.53708 z m -75.34255,1.48289 c 0.0607,-0.006 0,0.036 -0.0972,0.15778 -10.46072,13.72213 -13.51889,33.26742 -5.84491,48.96718 1.94385,4.32581 4.59152,8.47974 7.44202,12.14722 -6.01009,-2.56702 -11.53011,-6.16005 -17.08718,-9.52854 -3.45533,-2.50026 -5.83762,-6.48658 -5.78054,-10.75882 -2.04405,-10.22275 -2.36226,-22.2933 5.04575,-30.57292 4.33829,-4.25568 10.21417,-6.87154 15.4585,-10.00169 0,0.06 0.719,-0.38813 0.86231,-0.41033 z m 37.272,0.34734 c -14.48809,0.25076 -28.09322,13.10418 -27.1471,27.76486 -0.87507,15.51721 14.20085,29.65256 29.86217,27.79647 12.75071,-0.5885 23.69906,-11.0839 25.29495,-23.47402 2.12482,-14.29516 -8.33347,-29.40816 -22.93148,-31.7402 -1.67969,-0.27596 -3.3697,-0.41393 -5.07854,-0.34735 z m 11.7214,17.9525 c 1.92441,0 3.48144,1.53802 3.48144,3.4391 0,1.90102 -1.55703,3.4391 -3.48144,3.4391 -1.92381,0 -3.48084,-1.53808 -3.48084,-3.4391 0,-1.90108 1.55703,-3.4391 3.48084,-3.4391 z m -79.07905,9.52849 0,0.31555 c -0.1336,6.14289 0.85624,12.20271 1.88433,18.23655 -5.36213,-0.33055 -11.99163,0.042 -15.64978,-4.54333 -0.67163,-0.94292 -1.39853,-3.05271 0.35221,-3.28133 4.84171,-3.09037 9.36947,-6.69324 13.41445,-10.72732 z"
       id="path10362-5-5-1"
       style="fill:#161616"
       inkscape:connector-curvature="0" />
  </g>
</svg>
