<?xml version="1.0" encoding="UTF-8" standalone="no"?>
<!-- Created with Inkscape (http://www.inkscape.org/) -->

<svg
   xmlns:dc="http://purl.org/dc/elements/1.1/"
   xmlns:cc="http://creativecommons.org/ns#"
   xmlns:rdf="http://www.w3.org/1999/02/22-rdf-syntax-ns#"
   xmlns:svg="http://www.w3.org/2000/svg"
   xmlns="http://www.w3.org/2000/svg"
   xmlns:sodipodi="http://sodipodi.sourceforge.net/DTD/sodipodi-0.dtd"
   xmlns:inkscape="http://www.inkscape.org/namespaces/inkscape"
   width="256"
   height="256"
   id="svg2"
   version="1.1"
   inkscape:version="0.48.3.1 r9886"
   sodipodi:docname="leader.svg">
  <defs
     id="defs4">
    <filter
       id="filter4025"
       inkscape:label="Sharpen more"
       x="0"
       y="0"
       width="1"
       height="1"
       inkscape:menu="Image effects"
       inkscape:menu-tooltip="Sharpen edges and boundaries within the object, force=0.3"
       color-interpolation-filters="sRGB">
      <feConvolveMatrix
         id="feConvolveMatrix4027"
         targetY="1"
         targetX="1"
         in="SourceGraphic"
         divisor="1"
         kernelMatrix="0 -0.3 0 -0.3 2.2 -0.3 0 -0.3 0"
         order="3 3"
         result="result1" />
      <feBlend
         id="feBlend4029"
         in2="SourceGraphic"
         mode="normal"
         result="result2" />
    </filter>
    <filter
       id="filter4031"
       inkscape:label="Sharpen more"
       x="0"
       y="0"
       width="1"
       height="1"
       inkscape:menu="Image effects"
       inkscape:menu-tooltip="Sharpen edges and boundaries within the object, force=0.3"
       color-interpolation-filters="sRGB">
      <feConvolveMatrix
         id="feConvolveMatrix4033"
         targetY="1"
         targetX="1"
         in="SourceGraphic"
         divisor="1"
         kernelMatrix="0 -0.3 0 -0.3 2.2 -0.3 0 -0.3 0"
         order="3 3"
         result="result1" />
      <feBlend
         id="feBlend4035"
         in2="SourceGraphic"
         mode="normal"
         result="result2" />
    </filter>
    <filter
       id="filter4231"
       inkscape:label="Sharpen more"
       x="0"
       y="0"
       width="1"
       height="1"
       inkscape:menu="Image effects"
       inkscape:menu-tooltip="Sharpen edges and boundaries within the object, force=0.3"
       color-interpolation-filters="sRGB">
      <feConvolveMatrix
         id="feConvolveMatrix4233"
         targetY="1"
         targetX="1"
         in="SourceGraphic"
         divisor="1"
         kernelMatrix="0 -0.3 0 -0.3 2.2 -0.3 0 -0.3 0"
         order="3 3"
         result="result1" />
      <feBlend
         id="feBlend4235"
         in2="SourceGraphic"
         mode="normal"
         result="result2" />
    </filter>
  </defs>
  <sodipodi:namedview
     id="base"
     pagecolor="#ffffff"
     bordercolor="#666666"
     borderopacity="1.0"
     inkscape:pageopacity="0.0"
     inkscape:pageshadow="2"
     inkscape:zoom="0.984375"
     inkscape:cx="193.15873"
     inkscape:cy="300.75187"
     inkscape:document-units="px"
     inkscape:current-layer="layer1"
     showgrid="false"
     inkscape:window-width="1440"
     inkscape:window-height="876"
     inkscape:window-x="0"
     inkscape:window-y="24"
     inkscape:window-maximized="1" />
  <metadata
     id="metadata7">
    <rdf:RDF>
      <cc:Work
         rdf:about="">
        <dc:format>image/svg+xml</dc:format>
        <dc:type
           rdf:resource="http://purl.org/dc/dcmitype/StillImage" />
        <dc:title></dc:title>
      </cc:Work>
    </rdf:RDF>
  </metadata>
  <g
     inkscape:label="Calque 1"
     inkscape:groupmode="layer"
     id="layer1"
     transform="translate(0,-796.36218)">
    <g
       id="g5005"
       transform="matrix(5.2062027,0,0,5.1472505,-3.4399173,-3007.558)">
      <path
         style="fill:#cdcdcd"
         d="m 18.140765,787.28072 c -0.399617,-0.39962 -0.17151,-1.3954 0.506905,-2.21284 l 1.233482,-1.48625 -2.158001,0.68492 c -3.034861,0.96323 -3.770775,-0.90444 -1.273212,-3.23128 1.228669,-1.14468 1.680683,-2.21165 1.091272,-2.57592 -0.553398,-0.34202 -1.276684,-0.18417 -1.607302,0.35078 -0.647064,1.04698 -3.171923,0.423 -5.443408,-1.34524 l -1.4063352,-1.09477 2.9063352,-0.67285 2.906335,-0.67284 -3.5,0.17284 c -2.5174123,0.12432 -3.9912941,-0.43291 -5.2500002,-1.98488 -2.3813407,-2.93616 -2.2001731,-3.67207 0.7233605,-2.93831 1.8058108,0.45323 2.3369141,0.2652 1.9678087,-0.69668 -0.2804427,-0.73082 -1.756742,-1.23082 -3.3154863,-1.1229 l -2.8099347,0.19453 -0.132382,-3.52137 -0.132382,-3.52137 1.8556535,1.67934 1.8556535,1.67934 1.6694128,-1.66941 1.6694127,-1.66941 1.4176385,1.87198 c 1.655293,2.18581 1.919187,3.76069 0.481245,2.87199 -1.4025445,-0.86682 -1.188957,0.6674 0.38068,2.73446 0.724391,0.95395 1.57959,1.47194 1.900444,1.15108 0.320853,-0.32085 0.317973,0.43151 -0.0064,1.67192 -0.382153,1.46135 -0.214374,2.02328 0.476603,1.59623 0.586504,-0.36248 2.11989,0.58356 3.407523,2.10231 l 2.34115,2.76136 5.25,-0.13368 c 8.562248,-0.21802 9.394836,-0.34031 8.805773,-1.29344 -0.889606,-1.43941 0.509097,-4.09024 2.158205,-4.09024 0.845041,0 1.274828,0.58679 0.984306,1.34388 -0.373566,0.97349 0.217059,1.22752 2.143011,0.92171 2.090428,-0.33193 2.338092,-0.19497 1.158705,0.64081 -0.825,0.58464 -1.0725,1.06987 -0.55,1.07829 2.726681,0.0439 -1.61577,2.08245 -4.681597,2.1977 -2.75028,0.1034 -3.44956,0.48493 -3.006233,1.64022 0.376239,0.98046 0.169705,1.25332 -0.592231,0.78242 -0.798445,-0.49347 -1.169939,0.27474 -1.169939,2.41929 0,3.44642 -2.238352,3.75525 -2.847065,0.39281 -0.190885,-1.05442 -0.728208,-2.31945 -1.19405,-2.81118 -0.470604,-0.49675 -0.610946,0.009 -0.315817,1.13714 0.292142,1.11716 0.04197,2.33354 -0.55595,2.70307 -0.64441,0.39827 -1.087118,-0.14259 -1.087118,-1.32813 0,-1.1 -0.45,-2.27811 -1,-2.61803 -0.55,-0.33992 -1,0.0337 -1,0.8302 0,1.97641 -3.355115,5.98135 -4.256071,5.0804 z m 22.006071,-13.57288 c -3.080885,-1.12524 -3.242774,-1.66209 -1.593046,-5.28285 l 1.156954,-2.53924 1.530277,1.24219 1.530277,1.24218 -0.687231,-1.83179 c -0.377977,-1.00748 -0.687231,-2.04654 -0.687231,-2.30901 0,-0.26248 -0.384994,-0.23929 -0.855543,0.0515 -0.470549,0.29081 -0.638365,-0.60734 -0.372926,-1.9959 0.358993,-1.87795 1.026418,-2.45445 2.605543,-2.25059 2.437977,0.31473 4.622926,-0.79392 4.622926,-2.34569 0,-0.70131 -0.479611,-0.66539 -1.408456,0.10549 -1.436178,1.19192 -5.946059,1.05479 -7.220398,-0.21955 -0.387464,-0.38746 -0.257416,-0.70448 0.288994,-0.70448 0.546411,0 0.788645,-1.39559 0.538298,-3.10131 -0.250346,-1.70572 -0.740311,-2.63995 -1.08881,-2.07607 -0.349506,0.56551 -1.146577,-0.0617 -1.777546,-1.39869 l -1.143912,-2.42393 1.705915,0 c 0.938253,0 2.247522,0.44839 2.909486,0.99643 0.714233,0.59131 0.68228,0.39092 -0.07859,-0.49288 -0.705191,-0.81912 -2.474356,-1.58797 -3.931479,-1.70857 -1.457123,-0.12059 -2.449417,-0.5427 -2.205097,-0.93802 0.244321,-0.39532 -0.01312,-1.00142 -0.572093,-1.34688 -1.500545,-0.92739 -1.234744,-3.51008 0.361243,-3.51008 0.757656,0 1.933644,0.67005 2.613307,1.48899 0.679663,0.81894 1.704292,1.19941 2.276953,0.84549 0.581005,-0.35908 0.744709,-0.16376 0.370382,0.44191 -0.368952,0.59698 -0.21348,1.36807 0.345491,1.71353 0.558972,0.34546 1.016312,0.0656 1.016312,-0.62203 0,-1.87652 2.931371,2.36892 2.968197,4.29878 0.01749,0.91666 -0.530697,1.86756 -1.218197,2.11309 -0.6875,0.24554 -0.966071,0.75447 -0.619048,1.13095 0.347024,0.37649 1.356072,-0.0406 2.24233,-0.92685 2.358723,-2.35872 3.308884,-1.18328 4.088695,5.05811 0.538124,4.307 0.33285,6.12222 -0.906179,8.01322 -0.881047,1.34464 -1.14153,2.44481 -0.578851,2.44481 1.739678,0 1.134665,1.9793 -1.370886,4.48485 -1.316667,1.31667 -2.141667,2.64621 -1.833334,2.95454 0.704818,0.70482 0.374312,0.63903 -3.022727,-0.60167 z M 3.3905018,761.53488 c -0.8215163,-0.64062 -1.4330734,-1.83976 -1.3590157,-2.66476 0.074058,-0.825 0.1865576,-2.1176 0.25,-2.87244 l 0.1153497,-1.37245 1.5228922,1.26389 1.5228922,1.26389 -0.629881,-1.64145 c -0.3464346,-0.90279 -0.9693337,-1.64144 -1.3842203,-1.64144 -1.0743902,0 -4.466e-4,-4.90127 1.2422275,-5.66929 0.5751919,-0.35548 0.7370501,-0.15746 0.364286,0.44568 -0.3689512,0.59698 -0.21348,1.36807 0.3454915,1.71353 0.5751102,0.35544 1.0229595,-0.37428 1.0316247,-1.6809 0.035734,-5.38833 3.0456006,-6.37135 3.1970649,-1.04415 l 0.084452,2.97027 1.8515855,-0.4842 c 2.707948,-0.70815 2.275322,0.56883 -1.398415,4.12769 -1.7875002,1.7316 -2.8225002,2.80479 -2.3000002,2.38487 1.6128742,-1.29624 2.2977832,-0.86322 2.8013672,1.77111 0.266487,1.39404 0.242965,2.29306 -0.05227,1.99782 -0.295236,-0.29524 -1.3608113,0.20893 -2.3679447,1.12038 -1.4554537,1.31716 -1.8342932,1.3689 -1.8464643,0.25218 -0.01081,-0.99185 -0.2332112,-1.06249 -0.756334,-0.24023 -0.5638934,0.88634 -1.0980553,0.88634 -2.2346872,0 z m 8.4025902,-13.4857 c -0.545714,-0.37348 -1.063198,-1.79839 -1.149965,-3.16645 -0.107332,-1.69233 0.107775,-2.05775 0.672976,-1.14324 0.579936,0.93836 1.037236,1.01003 1.51475,0.23739 0.800728,-1.2956 3.565983,-1.49704 3.565983,-0.25977 0,1.60809 -3.614382,5.00918 -4.603744,4.33207 z"
         id="path5019"
         inkscape:connector-curvature="0" />
      <path
         style="fill:#afafaf"
         d="m 18.396836,785.37012 1.244889,-1.5 -2.122444,0 c -1.282754,0 -2.122445,-0.63576 -2.122445,-1.60699 0,-1.04149 0.546122,-1.39742 1.551938,-1.01145 1.013954,0.38909 1.30374,0.19394 0.835955,-0.56295 -0.482508,-0.78072 -0.156417,-0.94376 1,-0.5 1.019278,0.39113 1.467929,0.25712 1.105028,-0.33006 -0.336025,-0.5437 -0.0219,-1.03986 0.698062,-1.10257 0.719959,-0.0627 2.514062,-0.25826 3.986896,-0.43454 2.982597,-0.357 5.822121,2.8603 5.822121,6.59671 0,2.60496 -2.355767,2.08284 -2.847065,-0.63102 -0.190885,-1.05442 -0.728208,-2.31945 -1.19405,-2.81118 -0.46963,-0.49573 -0.626872,0.17257 -0.352934,1.5 l 0.494051,2.39405 -1.713821,-2.31303 -1.713821,-2.31302 -1.287906,3.06302 c -0.708348,1.68467 -2.03973,3.06303 -2.958625,3.06303 l -1.670718,0 1.244889,-1.5 z m 11.240806,-5.72242 c 0.224109,-0.67233 1.497803,-1.47981 2.83043,-1.7944 1.494279,-0.35275 2.424071,-1.28853 2.425861,-2.44149 0.0016,-1.02823 0.63711,-2.08216 1.412253,-2.34205 0.986456,-0.33075 1.213391,0.0381 0.756292,1.2293 -0.504679,1.31517 -0.237944,1.57009 1.173983,1.12196 1.215095,-0.38565 1.827042,-0.0775 1.827042,0.92012 0,1.74266 -2.897168,2.85522 -7.12234,2.73509 -2.182301,-0.062 -2.579647,0.15962 -1.504808,0.83948 l 1.460481,0.92378 -1.833333,0.0153 c -1.008334,0.008 -1.649971,-0.53477 -1.425861,-1.2071 z m -16.990806,-0.87125 c -3.0406045,-1.1377 -2.9144947,-3.26651 0.158705,-2.67903 1.725247,0.3298 2.262379,0.0791 1.893011,-0.88342 -0.746488,-1.94532 1.111973,-1.64923 3.043296,0.48486 2.122722,2.34558 2.116045,3.56216 -0.01506,2.74438 -0.918528,-0.35247 -1.931028,-0.23227 -2.25,0.26712 -0.330904,0.51806 -1.546161,0.54644 -2.82995,0.0661 z M 7.7810179,775.1526 c 0.3317022,-0.3317 -0.2940424,-1.23147 -1.3905436,-1.99949 -1.0965012,-0.76802 -1.9936385,-1.82088 -1.9936385,-2.33969 0,-1.77584 2.8852779,-0.94518 4.443296,1.27921 1.2277002,1.75278 1.5567042,1.87093 1.5567042,0.55901 0,-0.91492 -0.4500002,-1.9416 -1.0000002,-2.28152 -1.7624084,-1.08923 -1.0687322,-2.33073 1.0000002,-1.78975 1.1,0.28766 2,0.94709 2,1.4654 0,0.51831 0.443937,0.66802 0.986527,0.33268 0.626391,-0.38713 0.682028,0.21343 0.152407,1.64513 -0.459163,1.24124 -2.075647,2.58688 -3.5959844,2.99348 -1.5190245,0.40625 -2.4904699,0.46725 -2.1587677,0.13554 z m 32.6158181,-2.66003 c 0,-0.75766 0.640856,-1.90942 1.424124,-2.55948 l 1.424124,-1.18192 -1.492528,-3.57212 c -1.031372,-2.46842 -1.171835,-3.89281 -0.454608,-4.61004 0.717227,-0.71723 1.295225,-0.34236 1.870684,1.21325 l 0.832763,2.25118 1.176282,-2.58166 c 1.356736,-2.97771 3.219159,-3.42481 3.219159,-0.77279 0,2.77361 -2.483485,5.60331 -4.304465,4.90454 -1.133466,-0.43495 -1.426735,-0.1765 -1.015565,0.89499 0.317963,0.8286 1.195046,1.2698 1.949072,0.98045 2.187491,-0.83941 1.586317,1.8602 -0.943493,4.23684 -2.67761,2.51548 -3.685549,2.73338 -3.685549,0.79676 z m -1.949252,-1.62245 c -0.01107,-1.375 0.360363,-3.10023 0.825401,-3.83385 l 0.845524,-1.33384 0.531179,1.38423 c 0.292148,0.76132 -0.07928,2.48655 -0.825401,3.83384 l -1.35658,2.44962 -0.02012,-2.5 z m -35.7604915,-5.1168 c -0.2457791,-3.37856 1.0080126,-3.72315 3.0321162,-0.83334 l 1.4357808,2.04987 0.6399752,-2.54987 c 0.8089088,-3.22294 2.6018713,-3.33103 2.6018713,-0.15685 0,4.4562 -7.3900651,5.88459 -7.7097435,1.49019 z m 0.7034093,-4.21844 c -0.8791031,-0.68552 -1.3594013,-2.33846 -1.1673421,-4.01737 l 0.3263239,-2.85261 2.2958707,2.15686 2.2958708,2.15685 0.5964205,-1.55424 c 0.7404873,-1.92968 2.6591904,-2.04876 2.6591904,-0.16503 0,2.00899 -3.9193283,6.54716 -3.9820437,4.61078 -0.033588,-1.03704 -0.2772888,-1.14051 -0.7896033,-0.33524 -0.5638934,0.88634 -1.0980553,0.88634 -2.2346872,0 z m 37.2223722,-4.69043 c -1.756896,-2.81324 -1.497904,-4.14521 0.736389,-3.78719 1.078344,0.1728 2.613286,-0.58252 3.42858,-1.68714 l 1.476153,-2 0.66575,1.71701 c 1.873158,4.831 -3.705191,9.92327 -6.306872,5.75732 z M 4.9664933,754.66611 c -2.0337794,-2.90363 -2.180876,-6.54815 -0.1978658,-4.90239 l 1.3717918,1.13848 0.6756715,-3.26604 0.6756716,-3.26604 1.41379,1.88814 c 0.9916157,1.32432 1.1259406,2.42599 0.4498324,3.68931 -0.6330064,1.18278 -0.6111973,2.01919 0.063523,2.43619 0.5651145,0.34926 0.9038312,0.0953 0.7527042,-0.56431 -0.151127,-0.65963 0.287724,-1.40558 0.975224,-1.65766 2.46083,-0.90231 1.193005,2.61273 -1.6803427,4.65873 l -2.9303426,2.08659 -1.5696574,-2.241 z m 33.6803427,-3.87893 c -2.42643,-0.91947 -3.076987,-2.91706 -0.95,-2.91706 0.715,0 1.78921,0.48921 2.387132,1.08713 0.782843,0.78285 1.301922,0.7396 1.854509,-0.15451 0.494662,-0.80038 0.357081,-0.98806 -0.387133,-0.52811 -0.765778,0.47328 -1.154508,-0.21247 -1.154508,-2.03662 l 0,-2.75015 1.468197,1.94113 c 2.790432,3.68928 0.859908,6.90354 -3.218197,5.35819 z m -27.282774,-2.94087 -1.4672262,-0.91035 2.1458332,-2.15097 c 3.000628,-3.00782 4.786127,-2.11527 2.557383,1.2784 -1.294281,1.97078 -2.162357,2.44906 -3.23599,1.78292 z m 22.540371,-1.81712 c 0.23212,-0.23212 -0.01335,-1.23556 -0.545485,-2.22986 -1.455364,-2.71938 0.440803,-3.18672 3.420351,-0.843 3.432411,2.69993 3.313833,3.99861 -0.339682,3.72023 -1.62647,-0.12394 -2.767303,-0.41525 -2.535184,-0.64737 z"
         id="path5017"
         inkscape:connector-curvature="0" />
      <path
         style="fill:#969696"
         d="m 19.285538,785.08791 1.216141,-2.28221 -2.552422,0.64062 c -3.14576,0.78954 -3.678126,-2.08414 -0.568914,-3.07096 l 1.983506,-0.62955 -2.733506,-2.35277 c -1.503429,-1.29403 -2.383936,-2.70313 -1.956682,-3.13134 0.427254,-0.42821 2.088374,0.6574 3.691379,2.41247 l 2.914555,3.19102 2.447315,-0.93046 2.447314,-0.93047 2.201811,2.34372 c 1.210996,1.28904 2.048583,3.08263 1.861306,3.98575 -0.561449,2.7075 -2.317556,2.23584 -2.656927,-0.71361 -0.174033,-1.5125 -0.694404,-2.75 -1.156381,-2.75 -0.461977,0 -0.645332,1.0125 -0.407455,2.25 l 0.432503,2.25 -1.178937,-2.25 c -1.442376,-2.75277 -2.543403,-2.8648 -3.344646,-0.3403 -0.333363,1.05033 -1.337361,2.51283 -2.231108,3.25 l -1.624994,1.3403 1.216142,-2.28221 z m 2.027965,-4.85324 c 1.372324,-1.20066 -1.882539,-0.0856 -3.475537,1.19062 l -1.94113,1.55516 2.5,-1.19062 c 1.375,-0.65484 2.6875,-1.35466 2.916667,-1.55516 z m -9.025004,-2.30628 c -1.849898,-1.54056 -2.022986,-1.99927 -0.764108,-2.025 1.713034,-0.035 4.514174,2.65833 3.656608,3.5159 -0.275461,0.27546 -1.577086,-0.39544 -2.8925,-1.4909 z m 23.235892,-0.7455 1.372445,-1.68723 -1.773139,0.66472 -1.773139,0.66473 1.058323,-1.97749 c 1.266133,-2.3658 3.190157,-2.66801 2.305298,-0.3621 l -0.619886,1.6154 2.401271,-0.66718 2.401272,-0.66718 -1.734456,1.40066 c -0.953952,0.77036 -1.441452,1.69366 -1.083334,2.05178 0.358118,0.35812 -0.378977,0.65112 -1.637988,0.65112 l -2.289111,0 1.372444,-1.68723 z M 7.8968358,773.87012 c 0.2365245,-1.22817 -0.09072,-1.71055 -0.9394835,-1.38485 -0.7163375,0.27489 -1.5543434,-0.15668 -1.8622354,-0.95903 -0.8507885,-2.21712 2.4240448,-1.35753 4.0272995,1.0571 l 1.3556026,2.04165 -1.4720656,0.56488 c -1.0350115,0.39717 -1.364307,0.005 -1.1091176,-1.31975 z m 3.1666672,0.33333 c -1.046857,-1.04685 -0.778953,-5.33333 0.333333,-5.33333 0.55,0 1,1.35 1,3 0,3.10687 -0.203564,3.4631 -1.333333,2.33333 z m 29.333333,-1.70622 c 0,-0.82001 1.35,-2.45221 3,-3.62711 3.366402,-2.39709 4.427378,-0.53579 1.25,2.19291 -3.02971,2.60188 -4.25,3.01368 -4.25,1.4342 z m -1.914402,-1.62711 c -0.03023,-1.375 0.381246,-3.175 0.914402,-4 l 0.969374,-1.5 -0.05497,2 c -0.03024,1.1 -0.441718,2.9 -0.914404,4 l -0.859429,2 -0.05497,-2.5 z M 7.9088244,767.90789 c -0.5612932,-1.76848 0.8693032,-6.03777 2.0231952,-6.03777 0.2556494,0 0.4579254,1.2375 0.4495034,2.75 l -0.01531,2.75 -1.0655705,-1.5 c -0.8205128,-1.15503 -0.9275987,-0.86756 -0.4656352,1.25 0.6872984,3.15046 0.00728,3.72885 -0.9261799,0.78777 z M 3.3158155,766.20648 C 2.26837,764.24027 2.2051088,763.4393 3.0742058,763.14736 c 0.8673522,-0.29135 0.9027363,-1.1833 0.1343799,-3.38741 -1.2751422,-3.65787 -0.4907832,-4.71172 1.8010676,-2.41987 l 1.7080556,1.70806 0.8892536,-1.58901 c 1.0962248,-1.95885 2.7898735,-2.08013 2.7898735,-0.19979 0,2.00899 -3.9193283,6.54716 -3.9820437,4.61078 l -0.048582,-1.5 -0.9149119,1.44612 c -0.5550631,0.87734 -0.5490403,2.12975 0.015313,3.18426 0.5116235,0.95597 0.9302246,2.21772 0.9302246,2.80388 0,1.95204 -1.6441388,1.09934 -3.0810203,-1.5979 z m 39.3310205,-0.99864 c -0.6875,-0.27741 -1.25,-1.61844 -1.25,-2.98007 0,-1.50115 0.420479,-2.21581 1.068174,-1.81552 0.587495,0.3631 0.832148,1.27524 0.543674,2.027 -0.288475,0.75175 -0.137989,1.6057 0.334414,1.89766 0.472403,0.29196 1.329341,-0.81863 1.904307,-2.46798 1.135618,-3.25763 3.168936,-4.07211 3.117628,-1.24881 -0.03703,2.03775 -2.284758,5.28584 -3.57844,5.17105 -0.489366,-0.0434 -1.452257,-0.30592 -2.139757,-0.58333 z m -3.234687,-6.65346 c -0.0084,-0.44866 0.479583,-1.74046 1.084455,-2.87068 0.799691,-1.49423 0.799691,-1.86948 0,-1.37524 -0.604872,0.37383 -1.099768,0.25562 -1.099768,-0.26269 0,-0.51831 0.866332,-1.16894 1.925182,-1.44583 1.290784,-0.33755 1.762608,-0.0798 1.431826,0.78221 -0.271345,0.70712 -0.01783,1.57956 0.563364,1.93876 0.605292,0.37409 0.838588,0.0847 0.546108,-0.67755 -0.280836,-0.73184 0.117294,-2.18934 0.884734,-3.23888 l 1.395345,-1.90824 0.652187,2.05486 c 0.358703,1.13017 0.183269,3.2882 -0.389853,4.79563 l -1.042039,2.74077 -1.675386,-1.35869 c -1.159346,-0.9402 -1.444075,-0.97368 -0.924409,-0.10869 0.413036,0.6875 0.274417,1.25 -0.308042,1.25 -0.582459,0 -1.065908,-0.5625 -1.07433,-1.25 -0.01021,-0.83333 -0.338437,-0.75 -0.984687,0.25 -0.533156,0.825 -0.976265,1.13292 -0.984687,0.68426 z M 5.6494764,755.6625 c -1.5302685,-1.86119 -1.9533602,-5.32975 -0.6198281,-5.08144 0.6230469,0.11601 1.4052617,-1.15131 1.7382551,-2.81628 0.9017309,-4.50865 2.6171325,-2.49417 2.2752592,2.67195 -0.335952,5.07665 -1.7394179,7.23777 -3.3936862,5.22577 z m 4.1732164,-3.48817 c 0.1368891,-0.93269 0.7720712,-1.87019 1.4115162,-2.08333 1.319435,-0.43982 1.418012,-0.05 0.555638,2.19733 -0.810193,2.11133 -2.2812511,2.02608 -1.9671542,-0.114 z m 28.7926632,-1.41908 c -2.399841,-0.88776 -3.035732,-2.88513 -0.91852,-2.88513 0.715,0 1.78921,0.48921 2.387132,1.08713 0.782843,0.78285 1.301922,0.7396 1.854509,-0.15451 0.494662,-0.80038 0.357081,-0.98806 -0.387133,-0.52811 -0.729896,0.4511 -1.154508,-0.0438 -1.154508,-1.34549 0,-2.6023 0.632918,-2.61344 2.012635,-0.0354 1.487826,2.78003 -0.699558,5.00627 -3.794115,3.86152 z m -27.21852,-2.92076 -1.5000002,-1.005 2.3607842,-1.97969 c 3.066758,-2.57169 4.502146,-2.52634 3.097708,0.0979 -0.696751,1.30189 -1.696086,1.85338 -2.676628,1.47711 l -1.564751,-0.60045 1.263888,1.52289 c 1.459594,1.7587 1.147806,1.91357 -0.981001,0.48726 z m 23.75,-2.04447 c -1.90517,-1.10966 -2.400547,-3.9199 -0.690983,-3.9199 0.582459,0 0.737931,0.51953 0.345491,1.15451 -0.451387,0.73036 -0.273284,0.88242 0.484788,0.41391 0.659073,-0.40733 1.853602,-0.19676 2.654509,0.46793 3.031782,2.51616 0.835053,3.99717 -2.793805,1.88355 z"
         id="path5015"
         inkscape:connector-curvature="0" />
      <path
         style="fill:#878787"
         d="m 28.036316,786.17627 c -0.351714,-0.35172 -0.63948,-1.68948 -0.63948,-2.97282 0,-1.28333 -0.435877,-2.33333 -0.968615,-2.33333 -0.532739,0 -0.721003,0.7875 -0.418365,1.75 l 0.55025,1.75 -1.696387,-2 c -1.011721,-1.19279 -1.86643,-1.55273 -2.117698,-0.89181 -0.231722,0.6095 -1.116819,1.9595 -1.966883,3 l -1.545572,1.89181 0.554995,-1.76237 0.554996,-1.76236 -2.473361,0.62077 c -2.872101,0.72085 -3.608799,-1.94635 -0.831916,-3.01194 l 1.641443,-0.62988 -1.309732,1.57813 -1.309733,1.57813 2.665844,-1.21464 2.665844,-1.21464 -3.497555,-2.37665 c -1.923655,-1.30716 -3.497555,-2.81043 -3.497555,-3.3406 0,-1.73934 1.511157,-1.01349 4.149341,1.99304 2.028566,2.31179 3.195314,2.84807 5.347353,2.45783 3.137043,-0.56885 6.503306,1.85422 6.503306,4.68115 0,1.95746 -1.349597,3.2211 -2.36052,2.21018 z m -16.63948,-8.80615 c -0.941055,-1.1339 -0.953507,-1.5 -0.05102,-1.5 0.65663,0 1.868873,0.675 2.693873,1.5 l 1.5,1.5 -1.448984,0 c -0.796941,0 -2.009184,-0.675 -2.693873,-1.5 z m 24.127555,-0.18723 1.372445,-1.68723 -1.773139,0.66472 -1.773139,0.66473 1.058323,-1.97749 c 1.229952,-2.29819 3.20204,-2.69897 2.349581,-0.4775 -0.37975,0.98961 0.05625,1.52686 1.281385,1.57895 1.063552,0.0452 1.320238,0.29534 0.600758,0.58541 -0.690926,0.27855 -1.001869,0.91803 -0.690983,1.42105 0.310887,0.50303 -0.41641,0.91459 -1.616214,0.91459 l -2.181461,0 1.372444,-1.68723 z M 7.7104959,775.18158 c 0.4108664,-0.67041 0.017614,-1.58632 -0.9020861,-2.10101 l -1.6304907,-0.91247 1.5830115,-0.60745 c 0.937203,-0.35964 1.9893572,0.0895 2.5790497,1.101 l 0.9960377,1.70847 0.03041,-2.25 c 0.01673,-1.2375 0.513405,-2.25 1.103733,-2.25 1.859918,0 0.531916,3.19168 -2.0306965,4.88052 -1.3515548,0.89071 -2.1295902,1.08464 -1.7289676,0.43094 z m 32.6863401,-2.50143 c 0,-0.78865 1.414235,-2.4795 3.142743,-3.75744 1.728509,-1.27795 2.7479,-1.70007 2.265313,-0.93806 -0.482587,0.76201 -0.884321,1.78058 -0.892743,2.2635 -0.0084,0.48291 -1.027813,1.5503 -2.265313,2.37197 l -2.25,1.49394 0,-1.43391 z m -1.914402,-1.31003 c -0.03023,-1.1 0.381246,-2.675 0.914402,-3.5 l 0.969374,-1.5 -0.05497,1.5 c -0.03024,0.825 -0.441718,2.4 -0.914404,3.5 l -0.859429,2 -0.05497,-2 z M 4.0518234,767.04138 c -1.8356093,-2.02833 -2.1848167,-4.17126 -0.6797384,-4.17126 0.6318197,0 0.6293005,-0.90991 -0.00715,-2.58392 -1.2602175,-3.31462 -0.207071,-5.09894 1.6089023,-2.72592 l 1.3849962,1.80984 0.9869573,-1.5 c 0.6315851,-0.9599 0.6384275,-1.62002 0.019003,-1.83333 -0.5323747,-0.18334 -0.9679541,-0.77239 -0.9679541,-1.30902 0,-0.53663 0.5195288,-0.6546 1.1545085,-0.26216 0.7377505,0.45596 0.882094,0.27275 0.3998622,-0.50752 -0.7002716,-1.13306 1.8933787,-3.97974 3.6956296,-4.05617 1.423382,-0.0603 0.744235,1.99271 -1.213756,3.6692 -1.4624495,1.25218 -1.6875322,2.01425 -0.8817105,2.9852 0.7931075,0.95564 0.6437585,1.9727 -0.5592967,3.80879 -1.4960148,2.28321 -3.4781378,3.74259 -2.1379422,1.57411 0.3164309,-0.512 0.1179885,-1.21355 -0.440983,-1.55902 -0.9431444,-0.58289 -1.5326911,1.67909 -1.0399017,3.98992 1.1198663,5.25137 1.0822887,5.32733 -1.3214226,2.67126 z m 6.4725676,-14.92126 1.372445,-1.75 -1.75,1.37245 c -1.6657482,1.30636 -2.1954791,2.12755 -1.3724449,2.12755 0.2076554,0 0.9951554,-0.7875 1.7499999,-1.75 z m -2.6330857,15.74105 c -0.8048477,-1.30227 0.3576629,-4.99105 1.5729182,-4.99105 0.5129368,0 0.9257215,1.0125 0.9172995,2.25 l -0.01531,2.25 -1.0714336,-1.5 -1.0714339,-1.5 0.493127,2.25 c 0.5253023,2.39681 0.1955994,2.89268 -0.8251642,1.24105 z m 34.9440927,-2.75636 c -1.253157,-0.86739 -1.40601,-5.33261 -0.156103,-4.56012 0.469639,0.29025 0.617863,1.1428 0.329389,1.89456 -0.288475,0.75175 -0.137989,1.6057 0.334414,1.89766 0.472403,0.29196 1.375858,-0.93113 2.007677,-2.71798 l 1.148761,-3.24881 0.978861,1.71519 c 1.76511,3.09289 -1.822685,6.97161 -4.642999,5.0195 z m -1.006664,-7.34488 c -0.313552,-0.50734 -0.912259,-0.71096 -1.33046,-0.4525 -0.418202,0.25846 -0.691919,-0.45914 -0.608262,-1.59468 0.137864,-1.87132 3.506824,-4.94666 3.506824,-3.20119 0,0.40745 0.602628,-0.0833 1.339173,-1.09061 l 1.339174,-1.83143 0.659934,1.71976 c 1.484703,3.86908 -2.92155,9.66218 -4.906383,6.45065 z m 2.514604,-2.98977 c -1.348506,-2.51971 -1.765077,-2.396 -1.590715,0.47239 0.08696,1.4305 0.633235,2.18488 1.375899,1.90004 0.889061,-0.34098 0.948817,-1.00094 0.214816,-2.37243 z M 4.3968358,753.98815 c 0,-0.55 0.45,-1.27811 1,-1.61803 0.55,-0.33992 1,-0.16803 1,0.38197 0,0.55 -0.45,1.27811 -1,1.61803 -0.55,0.33992 -1,0.16803 -1,-0.38197 z m 2.4017172,-5.61803 c 0.1080208,-2.19816 1.8408187,-2.43287 2.3994138,-0.325 0.2596492,0.97979 0.094417,0.9571 -0.6342057,-0.0871 l -0.9853367,-1.41211 -0.4390771,1.91211 -0.439077,1.91211 0.098283,-2 z m 30.66492,1.08029 c -1.301994,-1.5688 0.318532,-1.72057 2.671909,-0.25023 0.830091,0.51862 1.054948,0.29537 0.681826,-0.67697 -0.306196,-0.79793 -0.0812,-1.74468 0.5,-2.10388 0.664823,-0.41088 0.812513,-0.0167 0.398235,1.0629 -0.446756,1.16422 -0.282304,1.48349 0.511454,0.99292 0.643467,-0.39769 1.169939,-0.29465 1.169939,0.22896 0,0.91247 -2.291413,2.16601 -3.959343,2.16601 -0.437672,0 -1.325981,-0.63887 -1.97402,-1.41971 z m -26.310406,-2.24465 c 0.690926,-0.27855 1.015823,-0.89545 0.721991,-1.37088 -0.293831,-0.47543 0.384789,-1.35626 1.508044,-1.95741 1.576347,-0.84363 1.98199,-0.79887 1.778008,0.19621 -0.317038,1.5466 -2.868076,3.75151 -4.264274,3.68569 -0.55,-0.0259 -0.434696,-0.27505 0.256231,-0.55361 z m 23.682783,-2.40303 c -2.258346,-2.49544 -0.152703,-3.24617 2.409542,-0.85907 2.555013,2.38035 2.608807,2.59313 0.6556,2.59313 -0.822714,0 -2.202028,-0.78033 -3.065142,-1.73406 z"
         id="path5013"
         inkscape:connector-curvature="0" />
      <path
         style="fill:#777777"
         d="m 28.036316,786.17627 c -0.982457,-0.98246 -0.75823,-2.49758 0.27511,-1.85894 0.503024,0.31089 1.142498,-5e-5 1.421052,-0.69098 0.314829,-0.7809 0.536335,-0.6164 0.585411,0.43475 0.08684,1.8601 -1.274548,3.12219 -2.281573,2.11517 z m -8.247755,-1.56852 0.554996,-1.76236 -2.473361,0.62077 c -2.872101,0.72085 -3.608799,-1.94635 -0.831916,-3.01194 l 1.641443,-0.62988 -1.391443,1.68661 -1.391444,1.68661 2.476474,-1.32011 c 4.513676,-2.40606 8.838906,-2.93471 10.236165,-1.25112 l 1.271677,1.53228 -2.39343,-0.75964 -2.393429,-0.75965 0.653725,1.8654 0.653725,1.8654 -1.617205,-2 c -0.957207,-1.18378 -1.789148,-1.54774 -2.038517,-0.89181 -0.231722,0.6095 -1.116819,1.9595 -1.966883,3 l -1.545572,1.89181 0.554995,-1.76237 z m -7.84902,-6.66853 c -0.316431,-0.512 -0.04846,-1.25653 0.595492,-1.65451 0.697845,-0.43129 0.903902,-0.29172 0.510081,0.34549 -0.363407,0.588 -0.09544,1.29701 0.595491,1.57556 0.899142,0.3625 0.917689,0.52891 0.06525,0.58541 -0.655041,0.0434 -1.449881,-0.33996 -1.766312,-0.85195 z m 23.706828,-0.3191 c 0.22891,-0.6875 1.247085,-1.41103 2.262612,-1.60785 l 1.846412,-0.35785 -1.60785,1.60785 c -1.921369,1.92137 -3.076805,2.08668 -2.501174,0.35785 z m -20.184784,-1.17198 c -0.687106,-0.82791 -0.779704,-1.63615 -0.226614,-1.97798 0.514388,-0.31791 1.458091,0.052 2.097116,0.82194 0.687106,0.82791 0.779704,1.63615 0.226614,1.97798 -0.514388,0.31791 -1.458091,-0.052 -2.097116,-0.82194 z m -7.8234251,-1.10056 c 0.4077282,-0.43639 0.273377,-1.35728 -0.2985583,-2.04642 -0.7221789,-0.87017 -0.7119586,-1.45565 0.033453,-1.91634 0.5903342,-0.36485 0.9496854,-0.12366 0.7985583,0.53597 -0.1511271,0.65963 0.2877234,1.40558 0.9752234,1.65766 0.6875,0.25209 1.2500007,-0.22761 1.2500007,-1.06598 0,-0.83837 0.408034,-1.77649 0.906741,-2.08471 0.498708,-0.30822 0.667497,0.35447 0.375088,1.47265 -0.29241,1.11817 -1.487944,2.52975 -2.6567423,3.13683 -1.1687981,0.60709 -1.7914916,0.74674 -1.3837633,0.31034 z m 27.2586761,-1.47746 c 0.339919,-0.55 0.816476,-1 1.059017,-1 0.242541,0 0.440983,0.45 0.440983,1 0,0.55 -0.476558,1 -1.059017,1 -0.582459,0 -0.780902,-0.45 -0.440983,-1 z m 5.5,-1.26302 c 0,-0.82883 1.08263,-2.21633 2.405845,-3.08333 l 2.405845,-1.57637 -0.241633,1.64635 c -0.132898,0.90549 -1.215528,2.29299 -2.405845,3.08333 l -2.164212,1.43698 0,-1.50696 z m -2,-2.23698 c 0,-0.825 0.435877,-1.5 0.968615,-1.5 0.532739,0 0.709594,0.675 0.393011,1.5 -0.316582,0.825 -0.752459,1.5 -0.968615,1.5 -0.216156,0 -0.393011,-0.675 -0.393011,-1.5 z M 3.6910524,766.1964 c -1.2288221,-1.87542 -1.3999463,-2.79104 -0.5731395,-3.06664 0.8355252,-0.27851 0.900074,-1.12589 0.2216824,-2.91019 -0.5263871,-1.38451 -0.666576,-2.98731 -0.3115309,-3.56178 1.0870353,-1.75886 2.2033384,1.40243 1.928838,5.46233 -0.1394509,2.0625 0.052486,3.75 0.4265264,3.75 0.3740405,0 0.6800737,0.675 0.6800737,1.5 0,2.07801 -0.3578257,1.90098 -2.3724501,-1.17372 z m 5.4369965,-1.24612 c -0.4349746,-1.66335 -0.3048307,-2.05378 0.4372365,-1.31171 0.5811026,0.5811 0.8597946,1.64682 0.6193136,2.36826 -0.2496484,0.74895 -0.7029408,0.29565 -1.0565501,-1.05655 z m 35.7286741,-1.57811 c 0.884435,-3.7734 1.283346,-4.15882 2.767891,-2.67427 0.925926,0.92592 0.670082,1.69776 -1.138063,3.43333 l -2.332507,2.23889 0.702679,-2.99795 z m -3.117176,-0.741 c 0.08683,-1.46781 0.539701,-2.27705 1.010914,-1.8064 0.471454,0.47089 0.401036,1.66133 -0.15729,2.659 l -1.010913,1.8064 0.157289,-2.659 z M 6.8491218,760.35424 c 0.3629352,-3.30626 2.0229627,-5.1422 3.0893548,-3.41674 0.5179174,0.838 0.3572414,0.98816 -0.4942662,0.4619 -0.914626,-0.56527 -1.0884394,-0.23402 -0.6319305,1.20431 0.3756845,1.18368 0.048617,2.46631 -0.810772,3.17954 l -1.4404838,1.19549 0.2880977,-2.6245 z m 34.0971872,-3.71695 -1.587371,-2.26629 1.666271,-1.21841 c 0.916449,-0.67012 2.002823,-1.0104 2.414164,-0.75618 0.411341,0.25422 1.050309,-0.32269 1.419928,-1.28203 l 0.672034,-1.74426 0.884771,1.57547 c 0.486624,0.86651 0.613925,2.61119 0.282892,3.87706 l -0.601878,2.30159 -1.827906,-2.37706 c -1.005349,-1.30738 -1.837912,-1.788 -1.850142,-1.06804 -0.01244,0.73261 -0.530601,0.99483 -1.176744,0.59549 -0.72104,-0.44563 -0.882825,-0.27393 -0.430902,0.45729 0.397984,0.64396 1.095359,0.94107 1.549724,0.66026 0.454364,-0.28082 1.078616,0.14743 1.387227,0.95166 0.950013,2.47569 -1.121605,2.69265 -2.802068,0.29345 z M 6.4757832,755.15908 c -0.084801,-1.30084 3.7680858,-5.28896 5.1096138,-5.28896 1.318764,0 0.929698,1.73888 -0.769181,3.43776 -0.8693409,0.86934 -1.9559063,1.34868 -2.4145898,1.0652 -0.4586835,-0.28348 -1.0618783,0.0499 -1.3404328,0.74081 -0.3764655,0.93379 -0.5267268,0.94538 -0.5854102,0.0452 z m 4.0486078,-3.03896 1.372445,-1.75 -1.75,1.37245 c -1.6657482,1.30636 -2.1954791,2.12755 -1.3724449,2.12755 0.2076554,0 0.9951554,-0.7875 1.7499999,-1.75 z m -3.9913731,-2.94098 c -0.1571393,-2.52816 1.3841133,-3.89422 2.4492281,-2.17082 0.4348755,0.70364 0.291466,0.90374 -0.3594072,0.50148 -0.6247662,-0.38613 -1.2672047,0.28896 -1.5183265,1.59549 l -0.4353124,2.26483 -0.136182,-2.19098 z m 31.3150661,0.6121 c -0.253426,-0.41005 0.203344,-0.64808 1.015045,-0.52895 2.089593,0.30669 2.841151,1.2745 0.989718,1.2745 -0.849193,0 -1.751337,-0.3355 -2.004763,-0.74555 z m -26.117915,-3.23675 c 0,-0.70613 0.875865,-1.34985 1.946366,-1.43049 1.070501,-0.0806 1.783001,-0.0434 1.583333,0.0827 -0.199667,0.12614 -1.075532,0.76986 -1.946365,1.43049 -1.245995,0.94524 -1.583334,0.92762 -1.583334,-0.0827 z m 23.256512,-1.58509 c -2.122079,-2.34487 -0.774022,-3.43834 1.862313,-1.5106 1.061556,0.77622 1.367535,1.41132 0.679955,1.41132 -0.687581,0 -0.972032,0.45 -0.632113,1 1.017013,1.64556 -0.06943,1.13326 -1.910155,-0.90072 z"
         id="path5011"
         inkscape:connector-curvature="0" />
      <path
         style="fill:#666666"
         d="m 20.034772,784.37126 0.615027,-1.60273 -2.626482,0.6592 c -2.681792,0.67309 -3.680693,-0.78804 -1.471973,-2.1531 0.7153,-0.44208 0.883063,-0.27432 0.440984,0.44098 -0.982804,1.59021 0.505206,1.39292 2.845638,-0.37729 2.071801,-1.56703 8.106868,-2.00857 8.943823,-0.65435 0.276643,0.44762 -1.271799,0.67346 -3.440983,0.50187 l -3.94397,-0.31199 0,1.93912 c 0,1.06651 -0.444846,2.21405 -0.988546,2.55007 -0.573599,0.35451 -0.730385,-0.0618 -0.373518,-0.99178 z m 8.926357,0.20573 c 0.375531,-0.98622 0.934692,-1.54122 1.242579,-1.23333 0.307887,0.30789 6.34e-4,1.11479 -0.682784,1.79313 -0.987616,0.98026 -1.10248,0.8654 -0.559795,-0.5598 z m -13.021588,-7.63777 c -0.316431,-0.512 -0.192988,-1.1672 0.274316,-1.45601 0.467305,-0.28881 0.849646,0.13009 0.849646,0.9309 0,1.68617 -0.315337,1.83349 -1.123962,0.52511 z m -8.4411782,-3.44677 c -0.8373854,-1.00898 -0.8751521,-1.6442 -0.1253087,-2.10763 0.5903342,-0.36485 0.9496854,-0.12366 0.7985583,0.53597 -0.4184316,1.82635 1.9880646,2.28602 2.5394536,0.48507 l 0.482194,-1.57495 -0.148212,1.68674 c -0.197886,2.25206 -2.0615485,2.76428 -3.5466852,0.9748 z M 40.396836,772.6071 c 0,-0.82883 1.08263,-2.21633 2.405845,-3.08333 l 2.405845,-1.57637 -0.241633,1.64635 c -0.132898,0.90549 -1.215528,2.29299 -2.405845,3.08333 l -2.164212,1.43698 0,-1.50696 z m 3.492921,-1.72553 c 0.350339,-0.56686 -0.05106,-0.7345 -0.940983,-0.39301 -1.732417,0.66479 -2.049387,1.38156 -0.610955,1.38156 0.517541,0 1.215913,-0.44485 1.551938,-0.98855 z m -5.413974,-0.59478 c 0.04798,-1.16495 0.284941,-1.4019 0.604167,-0.60417 0.288871,0.72187 0.253344,1.58438 -0.07895,1.91667 -0.332292,0.33229 -0.568641,-0.25834 -0.52522,-1.3125 z M 4.6749806,767.62012 c -1.9549754,-2.52778 -2.1574187,-3.41667 -0.7781448,-3.41667 0.7766125,0 1.1680771,0.39472 0.8699214,0.87714 -0.2981556,0.48243 0.00174,1.53243 0.6664334,2.33334 0.6646941,0.8009 0.9835346,1.45619 0.7085346,1.45619 -0.275,0 -0.935035,-0.5625 -1.4667446,-1.25 z m 4.4530683,-2.66984 c -0.4349746,-1.66335 -0.3048307,-2.05378 0.4372365,-1.31171 0.5811026,0.5811 0.8597946,1.64682 0.6193136,2.36826 -0.2496484,0.74895 -0.7029408,0.29565 -1.0565501,-1.05655 z m 35.2687871,-0.26659 c 0,-0.78722 0.577111,-2.22056 1.282469,-3.18519 l 1.282469,-1.75388 0.150358,1.99605 c 0.0827,1.09783 -0.494414,2.53117 -1.282469,3.1852 -1.130267,0.93804 -1.432827,0.8869 -1.432827,-0.24218 z m -2.657289,-2.05252 c 0.08683,-1.46781 0.539701,-2.27705 1.010914,-1.8064 0.471454,0.47089 0.401036,1.66133 -0.15729,2.659 l -1.010913,1.8064 0.157289,-2.659 z M 3.9017305,761.87804 c -0.3372266,-0.54564 -0.1805041,-1.76516 0.3482721,-2.71003 l 0.9614114,-1.71794 -0.1572891,2.70932 c -0.1746125,3.00771 -0.2688489,3.14826 -1.1523944,1.71865 z m 3.5843026,-4.17459 c 0.5396436,-1.00833 1.093909,-1.83333 1.2317007,-1.83333 0.1377918,0 0.2505306,0.825 0.2505306,1.83333 0,1.00834 -0.5542654,1.83334 -1.2317008,1.83334 -0.884499,0 -0.9551205,-0.5168 -0.2505305,-1.83334 z m 33.5092089,-0.9963 c -1.478842,-2.11134 -1.319802,-3.83703 0.353622,-3.83703 0.458697,0 1.101985,0.69837 1.429529,1.55194 0.341496,0.88992 0.173849,1.29132 -0.393011,0.94098 -1.391317,-0.85988 -1.233486,0.86214 0.211454,2.30708 0.66,0.66 0.910517,1.2 0.556704,1.2 -0.353813,0 -1.325047,-0.97333 -2.158298,-2.16297 z m 3.76322,-1.33703 c -0.768514,-2.00272 0.3656,-4.78662 1.631311,-4.00436 0.553885,0.34231 1.000172,1.15834 0.99175,1.81338 -0.0094,0.73385 -0.424304,0.61524 -1.080883,-0.30902 -0.820513,-1.15503 -0.927599,-0.86756 -0.465636,1.25 0.635988,2.91526 -0.106636,3.77753 -1.076542,1.25 z M 7.3968358,753.02218 c 0,-1.22223 3.8907922,-3.13778 4.4699512,-2.20068 0.30947,0.50073 -0.0072,1.26636 -0.703639,1.7014 -1.6921432,1.05697 -3.7663122,1.33193 -3.7663122,0.49928 z m 30.6030062,-2.98539 c -0.283266,-0.45834 0.120382,-0.83334 0.896994,-0.83334 0.776612,0 1.18026,0.375 0.896994,0.83334 -0.283265,0.45833 -0.686913,0.83333 -0.896994,0.83333 -0.210081,0 -0.613729,-0.375 -0.896994,-0.83333 z m -24.869673,-4.29076 c 0.678334,-0.68342 1.485241,-0.99067 1.793128,-0.68278 0.307888,0.30789 -0.247112,0.86705 -1.233333,1.24258 -1.425198,0.54268 -1.540062,0.42782 -0.559795,-0.5598 z"
         id="path5009"
         inkscape:connector-curvature="0" />
      <path
         style="fill:#555555"
         d="m 15.396836,782.8111 c 0,-0.58246 0.45,-0.7809 1,-0.44098 0.55,0.33992 1,0.81648 1,1.05902 0,0.24254 -0.45,0.44098 -1,0.44098 -0.55,0 -1,-0.47656 -1,-1.05902 z m 3.5,-0.94098 c 0.339919,-0.55 1.068034,-1 1.618034,-1 0.55,0 0.721885,0.45 0.381966,1 -0.339919,0.55 -1.068034,1 -1.618034,1 -0.55,0 -0.721885,-0.45 -0.381966,-1 z m 19.578947,-11.58333 c 0.04798,-1.16495 0.284941,-1.4019 0.604167,-0.60417 0.288871,0.72187 0.253344,1.58438 -0.07895,1.91667 -0.332292,0.33229 -0.568641,-0.25834 -0.52522,-1.3125 z m 5.463758,-0.34757 c -0.316431,-0.512 -0.192988,-1.1672 0.274316,-1.45601 0.467305,-0.28881 0.849646,0.13009 0.849646,0.9309 0,1.68617 -0.315337,1.83349 -1.123962,0.52511 z m 0.457295,-5.2113 c 0,-0.81155 0.699825,-2.34905 1.555166,-3.41667 l 1.555166,-1.94113 -1.224145,2.5 c -0.673281,1.375 -1.110606,2.65 -0.971833,2.83333 0.138772,0.18334 -0.01019,0.59584 -0.331021,0.91667 -0.320833,0.32083 -0.583333,-0.0807 -0.583333,-0.8922 z m 0,-11.29878 c 0,-0.79254 0.408034,-1.69316 0.906741,-2.00138 0.498708,-0.30822 0.671224,0.34022 0.383369,1.44098 -0.610613,2.33499 -1.29011,2.63015 -1.29011,0.5604 z M 7.3968358,752.97711 c 0,-0.49116 0.7386496,-1.17646 1.6414435,-1.52289 l 1.6414437,-0.62988 -1.2638884,1.52289 c -1.4401256,1.73524 -2.0189988,1.91584 -2.0189988,0.62988 z"
         id="path5007"
         inkscape:connector-curvature="0" />
    </g>
  </g>
</svg>
